<svg width="722" height="722" viewBox="0 0 722 722" fill="none" xmlns="http://www.w3.org/2000/svg">
<path d="M361.03 718.138C558.281 718.138 718.185 558.235 718.185 360.984C718.185 163.733 558.281 3.82959 361.03 3.82959C163.779 3.82959 3.87598 163.733 3.87598 360.984C3.87598 558.235 163.779 718.138 361.03 718.138Z" fill="white"/>
<path d="M361.026 721.949C161.982 721.949 0 560.019 0 360.974C0 161.93 161.982 0 361.026 0C560.07 0 722 161.93 722 361.026C722 560.122 560.07 721.949 361.026 721.949ZM361.026 7.74291C166.214 7.74291 7.7429 166.214 7.7429 361.026C7.7429 555.837 166.214 714.257 361.026 714.257C555.837 714.257 714.257 555.786 714.257 361.026C714.257 166.266 555.837 7.74291 361.026 7.74291Z" fill="#6B7280" fill-opacity="0.015"/>
<path d="M309.15 331.317V631.225C299.343 629.367 289.741 626.993 280.347 624.102V360.121L309.15 331.317Z" fill="#6B7280" fill-opacity="0.015"/>
<path d="M352.867 289.047L324.063 317.851V636.136H352.867V289.047Z" fill="#6B7280" fill-opacity="0.015"/>
<path d="M441.707 360.121V624.102C432.312 626.993 422.659 629.367 412.852 631.225V331.317L441.707 360.121Z" fill="#6B7280" fill-opacity="0.015"/>
<path d="M368.462 289.047L397.266 317.851V636.136H368.462V289.047Z" fill="#6B7280" fill-opacity="0.015"/>
<path d="M468.395 353.646C468.292 351.839 468.189 350.033 467.982 348.278C467.982 348.174 467.982 348.019 467.931 347.916C467.828 346.677 467.673 345.49 467.518 344.303C467.415 343.735 467.363 343.167 467.26 342.599C467.105 341.515 466.898 340.431 466.692 339.347C466.331 337.179 465.866 335.063 465.298 332.998C464.317 328.817 463.027 324.739 461.478 320.764C460.704 318.751 459.878 316.79 459.001 314.88C458.123 312.918 457.194 311.008 456.213 309.15L454.974 306.776L454.923 306.672C453.529 304.195 451.98 301.665 450.38 299.239C449.554 298.052 448.728 296.865 447.851 295.677C447.128 294.645 446.354 293.613 445.58 292.632C445.373 292.374 445.167 292.116 444.96 291.858C444.134 290.825 443.308 289.844 442.482 288.864C441.553 287.728 440.573 286.644 439.592 285.612C439.54 285.56 439.54 285.56 439.54 285.56C438.611 284.476 437.579 283.444 436.546 282.463C434.481 280.45 432.365 278.488 430.145 276.63C429.01 275.649 427.874 274.772 426.739 273.894C425.603 272.965 424.416 272.139 423.228 271.261C422.041 270.436 420.854 269.61 419.667 268.784C418.428 268.009 417.189 267.235 415.95 266.461C412.337 264.344 408.62 262.383 404.8 260.679C403.871 260.267 402.994 259.802 402.064 259.441C400.877 258.976 399.742 258.46 398.503 258.047C397.574 257.686 396.644 257.324 395.664 257.014C394.476 256.602 393.289 256.189 392.102 255.827C390.605 255.363 389.056 254.95 387.559 254.537C386.269 254.227 384.978 253.917 383.688 253.659C382.656 253.401 381.572 253.195 380.539 252.988C377.803 252.472 375.016 252.111 372.228 251.801L370.37 251.594C369.906 251.543 369.389 251.543 368.925 251.491C367.789 251.388 366.602 251.336 365.466 251.285C363.815 251.182 362.163 251.13 360.459 251.13C358.601 251.13 356.743 251.182 354.884 251.285C353.233 251.336 351.632 251.491 350.032 251.646C346.78 251.956 343.631 252.42 340.483 252.988C339.399 253.195 338.366 253.401 337.282 253.608C332.946 254.588 328.713 255.827 324.584 257.273C323.603 257.582 322.674 257.944 321.745 258.305C319.319 259.182 316.944 260.215 314.621 261.351C313.434 261.918 312.298 262.486 311.163 263.054C307.756 264.809 304.452 266.719 301.252 268.835L299.548 269.971C297.484 271.365 295.47 272.862 293.561 274.359C293.457 274.462 293.406 274.513 293.354 274.513C291.444 276.062 289.586 277.611 287.831 279.211C287.779 279.262 287.728 279.314 287.676 279.366C286.024 280.863 284.424 282.411 282.875 284.011C282.617 284.27 282.359 284.476 282.153 284.786C281.895 285.044 281.636 285.302 281.43 285.56C280.346 286.644 279.365 287.78 278.436 288.915C277.972 289.38 277.61 289.844 277.197 290.309L276.681 290.98C273.584 294.8 270.693 298.826 268.164 303.059C266.873 305.175 265.634 307.343 264.499 309.511C263.363 311.731 262.331 314.002 261.298 316.274C260.679 317.822 260.008 319.371 259.44 320.919C258.872 322.468 258.305 324.068 257.788 325.668L257.479 326.494C257.221 327.217 257.014 327.991 256.808 328.714C256.498 329.643 256.24 330.572 256.033 331.501C255.465 333.669 254.949 335.837 254.485 338.005C254.175 339.554 253.917 341.102 253.659 342.651C253.401 344.509 253.143 346.419 252.988 348.381C252.781 350.136 252.626 351.891 252.575 353.646C252.472 355.504 252.42 357.363 252.42 359.221V360.15C252.42 361.699 252.472 363.247 252.575 364.796C252.626 366.396 252.781 367.996 252.936 369.596C252.936 369.958 252.988 370.371 253.039 370.732C253.194 371.971 253.349 373.21 253.504 374.449C253.556 374.861 253.607 375.274 253.659 375.687C254.02 378.062 254.485 380.385 255.001 382.708C255.104 383.121 255.156 383.534 255.259 383.895C255.465 384.824 255.724 385.753 255.982 386.682C256.291 387.921 256.601 389.108 256.962 390.296L257.014 390.399C257.685 392.67 258.408 394.89 259.285 397.109C259.905 398.761 260.576 400.413 261.247 402.013C263.312 406.866 265.738 411.511 268.525 415.95C270.642 419.512 273.068 422.919 275.7 426.171C276.578 427.255 277.455 428.339 278.384 429.423C279.004 430.146 279.675 430.92 280.346 431.643V405.472C272.397 391.844 267.906 376.049 267.906 359.221C267.906 308.118 309.408 266.616 360.459 266.616C411.562 266.616 453.064 308.118 453.064 359.221C453.064 375.274 448.935 390.399 441.708 403.562V430.456C442.069 429.991 442.482 429.526 442.947 429.062C445.115 426.532 447.077 423.848 448.986 421.112C449.193 420.906 449.348 420.648 449.503 420.39C451.206 417.912 452.858 415.279 454.355 412.647C454.613 412.182 454.923 411.718 455.181 411.253L456.007 409.705C456.007 409.653 456.058 409.653 456.058 409.601C456.626 408.517 457.194 407.433 457.71 406.349C458.278 405.265 458.794 404.13 459.31 402.942C459.827 401.807 460.291 400.671 460.756 399.484C461.736 397.161 462.562 394.787 463.337 392.412C463.595 391.586 463.853 390.812 464.111 389.986C464.472 388.747 464.834 387.457 465.143 386.218C465.453 385.134 465.711 383.998 465.918 382.914C466.073 382.398 466.176 381.83 466.279 381.314C466.382 380.849 466.485 380.333 466.537 379.869C466.898 378.165 467.156 376.513 467.415 374.81C468.137 369.751 468.55 364.538 468.55 359.221C468.55 357.363 468.499 355.504 468.395 353.646Z" fill="#7D8191" fill-opacity="0.015"/>
<path d="M496.109 336.146C496.057 335.578 495.49 335.165 494.973 335.268L485.579 336.765C485.062 336.817 484.546 336.456 484.443 335.939C483.256 329.745 481.656 323.706 479.642 317.821C479.488 317.356 479.694 316.84 480.107 316.634L489.76 311.472C490.276 311.214 490.482 310.594 490.173 310.078L481.243 293.199C480.984 292.734 480.313 292.527 479.849 292.786L471.435 297.276C470.97 297.535 470.351 297.328 470.093 296.863C466.996 291.443 463.486 286.23 459.614 281.326C459.304 280.965 459.356 280.397 459.666 280.036L467.202 271.983C467.563 271.57 467.563 270.899 467.15 270.538L453.162 257.478C452.749 257.117 452.078 257.117 451.716 257.53L445.212 264.498C444.851 264.911 444.231 264.963 443.819 264.601C439.121 260.472 434.114 256.704 428.901 253.297C428.488 253.039 428.333 252.471 428.488 252.058L432.978 241.992C433.237 241.476 432.978 240.856 432.462 240.65L415.015 232.855C414.499 232.649 413.879 232.855 413.621 233.372L409.801 242.044C409.595 242.508 409.027 242.766 408.511 242.56C402.781 240.185 396.793 238.224 390.702 236.727C390.186 236.624 389.876 236.159 389.928 235.695L390.857 224.751C390.909 224.183 390.496 223.719 389.928 223.667L370.932 222.015C370.364 221.964 369.848 222.377 369.796 222.945L368.97 232.339C368.919 232.907 368.454 233.32 367.886 233.32C365.409 233.165 362.983 233.062 360.453 233.062C356.685 233.062 352.917 233.217 349.149 233.578C348.684 233.63 348.22 233.268 348.116 232.804L345.432 222.222C345.329 221.654 344.761 221.293 344.193 221.448L325.662 226.093C325.094 226.197 324.784 226.764 324.939 227.332L327.21 236.52C327.365 237.037 327.004 237.604 326.488 237.708C320.448 239.411 314.564 241.579 308.886 244.108C308.421 244.315 307.905 244.16 307.647 243.747L301.659 234.559C301.349 234.094 300.73 233.939 300.265 234.249L284.211 244.676C283.747 244.986 283.592 245.605 283.902 246.07L289.115 254.071C289.373 254.536 289.27 255.103 288.806 255.413C283.695 258.975 278.843 262.95 274.301 267.234C273.939 267.544 273.371 267.595 272.958 267.286L264.286 260.472C263.822 260.162 263.202 260.214 262.841 260.678L251.072 275.7C250.711 276.164 250.814 276.835 251.278 277.196L258.763 283.029C259.176 283.339 259.279 283.959 258.918 284.423C255.253 289.43 251.949 294.747 249.007 300.27C248.749 300.735 248.233 300.941 247.768 300.735L237.393 297.173C236.877 297.018 236.257 297.276 236.102 297.844L229.856 315.911C229.701 316.427 229.96 316.995 230.527 317.202L239.458 320.299C239.974 320.454 240.232 321.021 240.077 321.538C238.219 327.422 236.825 333.513 235.844 339.759C235.741 340.275 235.328 340.637 234.812 340.637H223.92C223.352 340.637 222.888 341.101 222.888 341.669V360.768C222.888 361.336 223.352 361.801 223.92 361.801H233.418C233.934 361.801 234.399 362.265 234.399 362.781C234.554 368.356 235.07 373.88 235.947 379.248C236.051 379.713 235.741 380.229 235.276 380.384L224.849 383.739C224.333 383.894 224.023 384.513 224.178 385.029L230.114 403.199C230.269 403.767 230.837 404.025 231.405 403.87L240.438 400.928C240.954 400.773 241.471 401.031 241.677 401.548C243.794 407.484 246.323 413.214 249.265 418.685C249.472 419.15 249.368 419.666 248.955 419.976L240.232 426.583C239.767 426.893 239.716 427.564 240.025 428.028L251.536 443.256C251.898 443.721 252.517 443.824 252.982 443.462L260.621 437.733C261.034 437.371 261.654 437.475 262.015 437.888C267.487 444.701 273.63 450.947 280.34 456.471V431.642C279.669 430.919 278.998 430.145 278.379 429.422C277.449 428.338 276.572 427.254 275.694 426.17C273.113 422.918 270.739 419.511 268.519 415.949C265.835 411.51 263.357 406.864 261.241 402.012C260.57 400.412 259.899 398.76 259.279 397.108C258.402 394.889 257.679 392.669 257.008 390.398L256.956 390.295C256.595 389.107 256.285 387.92 255.976 386.681C255.718 385.752 255.459 384.823 255.253 383.894C255.15 383.532 255.098 383.119 254.995 382.706C254.479 380.384 254.014 378.061 253.653 375.686C253.601 375.273 253.55 374.86 253.498 374.447C253.343 373.209 253.188 371.97 253.033 370.731C252.982 370.369 252.93 369.957 252.93 369.595C252.775 367.995 252.62 366.395 252.569 364.795C252.466 363.246 252.414 361.697 252.414 360.149V358.239C252.414 356.69 252.466 355.193 252.569 353.645C252.62 351.89 252.775 350.135 252.982 348.38C253.137 346.418 253.395 344.508 253.653 342.65C253.911 341.101 254.169 339.553 254.479 338.004C254.943 335.836 255.46 333.668 256.027 331.5C256.234 330.571 256.492 329.642 256.802 328.713C257.008 327.99 257.215 327.216 257.473 326.493L257.782 325.667C258.299 324.067 258.866 322.467 259.434 320.918C260.002 319.37 260.673 317.821 261.292 316.272C262.325 314.001 263.357 311.73 264.493 309.51C265.629 307.342 266.867 305.174 268.158 303.058C270.687 298.825 273.578 294.799 276.675 290.979L277.191 290.308C277.604 289.843 277.966 289.379 278.43 288.914C279.359 287.778 280.34 286.643 281.424 285.559C281.631 285.301 281.889 285.043 282.147 284.785C282.353 284.475 282.611 284.268 282.869 284.01C284.418 282.41 286.018 280.861 287.67 279.365C287.722 279.313 287.773 279.261 287.825 279.21C289.58 277.609 291.438 276.061 293.348 274.512C293.4 274.512 293.451 274.461 293.555 274.357C295.464 272.86 297.478 271.364 299.542 269.97L301.246 268.834C304.446 266.718 307.75 264.808 311.157 263.053C312.292 262.485 313.428 261.917 314.615 261.349C316.938 260.214 319.313 259.181 321.739 258.304C322.668 257.942 323.597 257.581 324.578 257.271C328.707 255.826 332.94 254.587 337.276 253.606C338.36 253.4 339.393 253.193 340.477 252.987C343.625 252.419 346.774 251.955 350.026 251.645C351.626 251.49 353.227 251.335 354.878 251.284C356.737 251.18 358.595 251.129 360.453 251.129C362.157 251.129 363.809 251.18 365.46 251.284C366.596 251.335 367.783 251.387 368.919 251.49C369.383 251.542 369.9 251.542 370.364 251.593L372.222 251.8C375.01 252.109 377.797 252.471 380.533 252.987C381.566 253.193 382.65 253.4 383.682 253.658C384.972 253.916 386.263 254.226 387.553 254.536C389.05 254.949 390.599 255.362 392.096 255.826C393.283 256.187 394.47 256.6 395.658 257.013C396.638 257.323 397.568 257.684 398.497 258.046C399.736 258.459 400.871 258.975 402.058 259.439C402.988 259.801 403.865 260.265 404.794 260.678C408.614 262.382 412.331 264.343 415.944 266.46C417.183 267.234 418.422 268.008 419.661 268.783C420.848 269.608 422.035 270.434 423.222 271.26C424.41 272.138 425.597 272.964 426.733 273.893C427.868 274.77 429.004 275.648 430.139 276.629C432.359 278.487 434.475 280.449 436.54 282.462C437.573 283.442 438.605 284.475 439.534 285.559C439.534 285.559 439.534 285.559 439.586 285.61C440.567 286.643 441.547 287.727 442.476 288.862C443.302 289.843 444.128 290.824 444.954 291.856C445.161 292.114 445.367 292.373 445.574 292.631C446.348 293.611 447.122 294.644 447.845 295.676C448.722 296.863 449.548 298.051 450.374 299.238C451.974 301.664 453.523 304.193 454.917 306.671L454.968 306.774L456.207 309.149C457.188 311.007 458.117 312.917 458.995 314.879C459.872 316.789 460.698 318.75 461.472 320.763C462.969 324.738 464.26 328.816 465.292 332.997C465.86 335.062 466.325 337.178 466.686 339.346C466.892 340.43 467.099 341.514 467.254 342.598C467.357 343.166 467.409 343.734 467.512 344.302C467.667 345.489 467.822 346.676 467.925 347.915C467.976 348.018 467.976 348.173 467.976 348.276C468.183 350.031 468.286 351.838 468.389 353.645C468.493 355.503 468.544 357.361 468.544 359.22C468.544 364.536 468.131 369.75 467.409 374.809C467.15 376.512 466.892 378.164 466.531 379.867C466.479 380.332 466.376 380.848 466.273 381.313C466.17 381.829 466.067 382.397 465.912 382.913C465.705 383.997 465.447 385.133 465.137 386.217C464.828 387.455 464.466 388.746 464.105 389.985C463.847 390.811 463.589 391.585 463.331 392.411C462.556 394.785 461.73 397.16 460.75 399.483C460.285 400.67 459.821 401.806 459.304 402.941C458.788 404.129 458.272 405.264 457.704 406.348C457.188 407.432 456.62 408.516 456.052 409.6C456.052 409.652 456.001 409.652 456.001 409.703L455.175 411.252C454.917 411.717 454.607 412.181 454.349 412.646C452.852 415.278 451.2 417.911 449.497 420.389C449.342 420.647 449.187 420.905 448.98 421.111C447.122 423.847 445.109 426.531 442.941 429.061C442.476 429.525 442.063 429.99 441.702 430.454V455.593C448.464 449.915 454.607 443.566 460.027 436.597C460.337 436.184 460.853 436.081 461.317 436.339L470.919 441.656C471.435 441.914 472.054 441.759 472.312 441.243L481.604 424.518C481.862 424.054 481.656 423.383 481.191 423.124L472.88 418.53C472.416 418.272 472.209 417.653 472.467 417.188C475.358 411.665 477.784 405.935 479.849 399.947C480.004 399.483 480.468 399.225 480.984 399.276L491.721 401.186C492.289 401.289 492.857 400.928 492.96 400.36L496.264 381.571C496.367 381.003 495.954 380.435 495.438 380.332L486.095 378.732C485.579 378.629 485.217 378.112 485.269 377.545C486.146 371.557 486.611 365.414 486.611 359.22V358.032L498.277 356.174C498.845 356.071 499.206 355.555 499.103 354.987L496.109 336.146Z" fill="#6B7280" fill-opacity="0.015"/>
<path d="M352.87 289.064L324.066 317.868V636.153H352.87V289.064Z" fill="#6B7280" fill-opacity="0.015"/>
<path d="M441.705 360.147V624.128C432.31 627.019 422.657 629.393 412.85 631.252V331.343L441.705 360.147Z" fill="#6B7280" fill-opacity="0.015"/>
<path d="M403.612 160.296L362.626 110.741L360.51 133.247C234.971 133.557 133.281 235.35 133.281 360.992C133.281 385.976 137.308 409.927 144.741 432.382L161.465 401.72L193.315 419.115C187.017 400.945 183.558 381.382 183.558 360.992C183.558 264.722 260.162 186.467 355.709 183.679L354.057 201.282L403.612 160.296Z" fill="#6B7280" fill-opacity="0.015"/>
<path d="M496.07 513.362L495.193 476.97C462.672 514.601 414.666 538.397 361.034 538.397C297.232 538.397 241.432 504.638 210.15 454.155L226.204 446.825L165.913 424.422L143.51 484.713L164.054 475.319C203.491 543.146 276.894 588.778 360.982 588.778C428.552 588.778 489.153 559.355 530.81 512.588L496.07 513.362Z" fill="#6B7280" fill-opacity="0.015"/>
<path d="M361.031 590.014C280.195 590.014 204.624 546.706 163.535 476.916L141.184 487.137L165.135 422.716L229.556 446.667L212.005 454.668C244.526 506.288 300.12 537.053 360.979 537.053C412.134 537.053 460.656 514.805 494.157 476.09L496.325 473.561L497.254 512.017L533.749 511.14L531.787 513.359C488.479 562.088 426.226 590.014 361.031 590.014ZM164.619 473.613L165.187 474.645C205.656 544.228 280.711 587.485 361.031 587.485C424.471 587.485 485.123 560.746 527.916 513.927L494.828 514.702L494.002 480.323C460.088 518.108 411.824 539.737 361.031 539.737C298.778 539.737 241.945 508.043 209.063 454.875L208.289 453.636L222.845 446.977L166.684 426.123L145.778 482.285L164.619 473.613Z" fill="#6B7280" fill-opacity="0.015"/>
<path d="M588.774 360.973C588.774 251.024 510.88 159.296 407.28 137.978L425.502 167.762L394.479 186.706C476.45 202.295 538.445 274.407 538.445 360.973C538.445 391.377 530.702 419.922 517.178 444.958L502.776 434.737L513.513 498.126L576.901 487.389L558.473 474.278C577.727 440.932 588.774 402.269 588.774 360.973Z" fill="#6B7280" fill-opacity="0.015"/>
<path d="M368.462 289.064L397.266 317.868V636.153H368.462V289.064Z" fill="#6B7280" fill-opacity="0.015"/>
<path d="M309.15 331.343V631.252C299.343 629.393 289.741 627.019 280.347 624.128V360.147L309.15 331.343Z" fill="#6B7280" fill-opacity="0.015"/>
<path d="M361.024 640.053C358.237 640.053 355.501 640.002 352.713 639.899C342.906 639.64 333.046 638.866 323.497 637.524C317.87 636.75 312.915 635.975 308.372 635.046C298.513 633.188 288.654 630.762 279.207 627.82C161.257 591.686 81.9697 484.473 81.9697 360.947C81.9697 207.07 207.147 81.8931 361.024 81.8931C514.85 81.8931 640.027 207.07 640.027 360.947C640.027 484.421 560.791 591.686 442.841 627.82C433.394 630.71 423.587 633.136 413.573 635.046C408.462 636.079 403.3 636.905 397.777 637.627C388.124 638.918 378.317 639.692 368.612 639.95C366.031 640.002 363.553 640.053 361.024 640.053ZM361.024 89.6876C211.431 89.6876 89.7126 211.406 89.7126 360.999C89.7126 481.066 166.78 585.337 281.479 620.438C290.718 623.277 300.268 625.652 309.869 627.458C314.257 628.336 319.057 629.11 324.529 629.833C333.821 631.123 343.422 631.846 352.971 632.104C358.237 632.31 363.244 632.259 368.354 632.156C377.8 631.898 387.35 631.123 396.745 629.936C402.113 629.265 407.12 628.439 412.076 627.458C421.832 625.6 431.381 623.277 440.57 620.438C555.268 585.337 632.284 481.066 632.284 360.999C632.284 211.406 510.617 89.6876 361.024 89.6876Z" fill="#6B7280" fill-opacity="0.015"/>
<path d="M30.5094 449.511L28.3412 439.134L57.405 413.529L24.4179 420.343L22.5078 411.155L69.7945 401.346L71.8594 411.206L42.2794 437.431L75.8344 430.462L77.7445 439.651L30.5094 449.511Z" fill="#6B7280" fill-opacity="0.015"/>
<path d="M19.9306 379.612L19.5176 368.203L67.114 349.258L67.527 360.202L57.7186 363.764L58.3897 381.522L68.4562 384.413L68.8692 394.944L19.9306 379.612ZM49.9752 379.096L49.5106 366.758L30.7714 373.572L49.9752 379.096Z" fill="#6B7280" fill-opacity="0.015"/>
<path d="M23.0253 307.718L31.5431 308.544L30.1493 322.947L69.6925 326.819L68.7117 336.937L29.1685 333.065L27.7746 347.52L19.2568 346.694L23.0253 307.718Z" fill="#6B7280" fill-opacity="0.015"/>
<path d="M74.8 296.663L72.7867 306.471L25.5 296.714L27.5133 286.906L74.8 296.663Z" fill="#6B7280" fill-opacity="0.015"/>
<path d="M84.46 249.914C86.8347 254.56 86.938 260.187 84.7182 266.691C82.4984 273.248 79.0396 277.636 74.2903 279.855C68.3537 283.004 61.2813 283.211 53.0732 280.372C44.7103 277.532 39.1866 273.093 36.5539 267.001C34.1792 262.355 34.076 256.728 36.2957 250.224C38.5155 243.668 41.9743 239.28 46.7236 237.06C52.5054 233.859 59.5777 233.704 67.9407 236.544C76.1487 239.331 81.6208 243.822 84.46 249.914ZM75.4776 253.528C73.4643 250.379 69.8507 247.901 64.6884 246.146C59.5777 244.39 55.2414 244.184 51.6794 245.423C48.1174 246.662 45.6911 249.243 44.4006 253.011C43.11 256.78 43.4714 260.29 45.4847 263.491C47.498 266.691 51.1116 269.169 56.2739 270.925C61.4362 272.68 65.7725 272.886 69.3345 271.596C72.8965 270.305 75.3228 267.724 76.6133 263.955C77.8523 260.135 77.4909 256.677 75.4776 253.528Z" fill="#6B7280" fill-opacity="0.015"/>
<path d="M51.9863 214.115L57.0454 204.823L95.8143 204.152L66.2859 187.994L70.8287 179.734L113.211 202.913L108.359 211.741L68.8671 212.515L98.9117 228.983L94.3688 237.242L51.9863 214.115Z" fill="#6B7280" fill-opacity="0.015"/>
<path d="M89.2012 154.028L96.2735 145.046L144.799 161.514L138.037 170.135L128.28 166.521L117.284 180.511L123.066 189.235L116.51 197.547L89.2012 154.028ZM112.432 173.129L120.072 163.424L101.384 156.455L112.432 173.129Z" fill="#6B7280" fill-opacity="0.015"/>
<path d="M116.818 121.672L124.2 114.806L151.251 143.766L168.906 127.298L174.843 133.648L149.806 156.982L116.818 121.672Z" fill="#6B7280" fill-opacity="0.015"/>
<path d="M198.581 61.6666C200.491 61.4085 202.349 61.615 204.208 62.2861C205.705 62.8023 207.099 63.5767 208.389 64.5575C209.68 65.5384 210.764 66.8289 211.745 68.4809C212.932 70.4425 213.552 72.714 213.707 75.1919C213.861 77.6698 212.984 79.9928 211.177 82.161C213.552 81.7996 215.565 82.1094 217.217 83.0386C218.869 83.9678 220.521 85.9295 222.276 88.8204L223.928 91.608C225.064 93.518 225.89 94.757 226.457 95.3249C227.335 96.2541 228.316 96.7187 229.452 96.7703L230.071 97.8028L220.469 103.481C219.643 102.707 219.024 102.087 218.611 101.571C217.682 100.539 216.856 99.4031 216.133 98.2157L213.81 94.3956C212.209 91.7629 210.712 90.2658 209.319 89.9044C207.925 89.5431 206.015 90.0593 203.588 91.5048L195.071 96.5122L204.673 112.825L196.155 117.833L171.634 76.2243L191.509 64.5059C194.245 62.8023 196.671 61.8731 198.581 61.6666ZM184.23 78.3925L190.838 89.5947L200.181 84.071C202.04 82.9869 203.279 81.9029 203.95 80.922C205.137 79.1668 205.034 77.1019 203.64 74.7789C202.143 72.2494 200.336 71.0104 198.271 71.1136C197.084 71.1653 195.587 71.6815 193.832 72.7656L184.23 78.3925Z" fill="#6B7280" fill-opacity="0.015"/>
<path d="M257.329 43.8914L233.53 53.1835L237.247 62.7338L259.084 54.216L262.129 62.011L240.293 70.5288L244.784 82.0924L269.718 72.3873L272.867 80.4921L238.744 93.8108L221.192 48.7955L254.18 35.9414L257.329 43.8914Z" fill="#6B7280" fill-opacity="0.015"/>
<path d="M298.062 24.9902L308.284 22.7188L302.605 73.4126L293.313 75.4775L266.985 31.8044L277.516 29.4814L295.636 63.0363L298.062 24.9902Z" fill="#6B7280" fill-opacity="0.015"/>
<path d="M358.397 27.4669L332.895 29.0672L333.514 39.2886L356.951 37.8431L357.467 46.206L334.031 47.6515L334.805 60.041L361.494 58.3891L362.062 67.0618L325.513 69.3332L322.519 21.1172L357.88 18.8975L358.397 27.4669Z" fill="#6B7280" fill-opacity="0.015"/>
<path d="M374.867 19.1157L385.398 20.1482L401.246 55.51L404.447 22.0066L413.791 22.8842L409.196 70.9453L399.13 69.9644L382.817 33.9832L379.564 68.106L370.221 67.2284L374.867 19.1157Z" fill="#6B7280" fill-opacity="0.015"/>
<path d="M431.491 26.1313L441.402 28.8157L433.71 57.4665C432.833 60.6672 432.575 63.0935 432.936 64.797C433.401 67.7395 435.621 69.7012 439.596 70.7853C443.519 71.8694 446.41 71.1983 448.32 68.9269C449.456 67.6363 450.488 65.4165 451.314 62.2159L459.006 33.5651L468.917 36.2495L461.226 64.9003C459.883 69.8561 458.077 73.5213 455.805 75.8443C451.572 80.1291 445.429 81.2132 437.376 79.045C429.323 76.8768 424.522 72.8502 422.973 67.0168C422.199 63.8162 422.457 59.7896 423.799 54.8338L431.491 26.1313Z" fill="#6B7280" fill-opacity="0.015"/>
<path d="M514.701 64.8483L491.419 54.3172L487.186 63.6609L508.558 73.3144L505.151 81.0063L483.779 71.3528L478.668 82.6582L503.035 93.6539L499.473 101.552L466.124 86.4783L485.999 42.4438L518.263 57.0016L514.701 64.8483Z" fill="#6B7280" fill-opacity="0.015"/>
<path d="M562.036 84.688L571.173 91.5539L555.789 140.441L547.065 133.833L550.472 123.973L536.276 113.287L527.707 119.275L519.292 112.926L562.036 84.688ZM543.452 108.28L553.312 115.713L559.868 96.871L543.452 108.28Z" fill="#6B7280" fill-opacity="0.015"/>
<path d="M595.38 111.708L602.452 119.141L580.977 139.584C578.551 141.855 577.105 143.817 576.537 145.469C575.402 148.205 576.279 151.096 579.067 154.038C581.854 156.981 584.694 157.962 587.481 156.981C589.133 156.516 591.147 155.122 593.573 152.799L615.048 132.357L622.12 139.79L600.594 160.233C596.877 163.795 593.418 165.963 590.269 166.789C584.436 168.235 578.654 165.963 572.872 159.923C567.09 153.884 565.129 147.947 566.832 142.165C567.813 139.016 570.136 135.712 573.853 132.15L595.38 111.708Z" fill="#6B7280" fill-opacity="0.015"/>
<path d="M653.042 182.561L646.022 187.413L637.762 175.54L605.085 198.202L599.303 189.839L631.98 167.177L623.72 155.252L630.741 150.399L653.042 182.561Z" fill="#6B7280" fill-opacity="0.015"/>
<path d="M616.492 215.577L659.907 194.463L664.295 203.497L647.724 211.55L655.932 228.431L672.503 220.378L676.891 229.412L633.476 250.526L629.088 241.491L648.499 232.044L640.29 215.164L620.88 224.611L616.492 215.577Z" fill="#6B7280" fill-opacity="0.015"/>
<path d="M651.596 294.466C647.002 291.988 643.698 287.445 641.839 280.786C639.929 274.126 640.291 268.551 642.924 264.008C646.021 258.02 651.699 253.839 660.062 251.464C668.58 249.038 675.601 249.554 681.228 253.013C685.822 255.49 689.126 260.033 690.985 266.693C692.895 273.352 692.533 278.927 689.9 283.47C686.958 289.355 681.279 293.537 672.762 295.963C664.399 298.389 657.378 297.873 651.596 294.466ZM656.913 286.361C660.372 287.806 664.76 287.755 669.974 286.258C675.188 284.761 678.905 282.489 681.073 279.392C683.293 276.295 683.809 272.836 682.725 269.016C681.641 265.196 679.318 262.511 675.859 261.014C672.349 259.517 668.012 259.569 662.798 261.066C657.584 262.563 653.868 264.886 651.699 267.983C649.531 271.081 648.963 274.539 650.099 278.411C651.132 282.283 653.403 284.916 656.913 286.361Z" fill="#6B7280" fill-opacity="0.015"/>
<path d="M700.686 336.398C700.118 338.256 699.137 339.857 697.795 341.25C696.711 342.386 695.42 343.367 694.026 344.09C692.633 344.864 690.981 345.329 689.071 345.535C686.799 345.793 684.476 345.432 682.153 344.503C679.83 343.573 678.075 341.87 676.888 339.289C676.217 341.612 675.132 343.315 673.584 344.399C672.035 345.483 669.609 346.206 666.202 346.568L663.001 346.929C660.833 347.135 659.336 347.394 658.561 347.652C657.374 348.065 656.496 348.736 656.032 349.82L654.845 349.923L653.657 338.824C654.69 338.411 655.516 338.101 656.187 337.895C657.477 337.482 658.871 337.224 660.265 337.017L664.705 336.501C667.75 336.14 669.764 335.365 670.641 334.281C671.57 333.146 671.88 331.184 671.57 328.396L670.538 318.588L651.696 320.601L650.663 310.793L698.673 305.682L701.099 328.654C701.408 331.958 701.254 334.539 700.686 336.398ZM691.394 316.42L678.488 317.814L679.624 328.603C679.83 330.771 680.295 332.32 680.914 333.352C682.05 335.159 683.908 335.933 686.644 335.624C689.535 335.314 691.394 334.178 692.22 332.268C692.684 331.184 692.787 329.584 692.581 327.519L691.394 316.42Z" fill="#6B7280" fill-opacity="0.015"/>
<path d="M654.228 368.883L654.382 358.868L702.702 359.487L702.547 369.502L654.228 368.883Z" fill="#6B7280" fill-opacity="0.015"/>
<path d="M698.105 419.829L689.587 418.848L691.239 404.497L651.747 399.954L652.883 389.836L692.374 394.379L694.026 379.976L702.544 380.957L698.105 419.829Z" fill="#6B7280" fill-opacity="0.015"/>
<path d="M688.198 459.894L685.204 470.941L660.27 447.504L642.77 442.806L645.402 433.05L662.902 437.747L696.406 429.436L693.308 440.948L670.388 445.181L688.198 459.894Z" fill="#6B7280" fill-opacity="0.015"/>
<path d="M609.576 533.459C608.079 538.208 608.285 540.996 608.801 545.9L609.008 547.965L610.763 546.881C611.537 546.416 616.906 541.925 618.145 536.453C618.816 533.562 619.281 530.31 618.403 525.922L617.99 523.96L616.39 525.199C613.757 527.109 610.711 529.793 609.576 533.459Z" fill="#6B7280" fill-opacity="0.015"/>
<path d="M604.357 545.298C604.099 544.266 603.789 543.285 603.376 542.407L602.756 541.065L601.827 542.149C599.504 544.833 597.336 547.879 596.975 551.906C596.613 556.036 596.768 558.978 597.646 562.437C597.904 563.418 598.214 564.45 598.575 565.637L598.833 566.36L599.607 566.257C599.969 566.205 608.074 564.915 612.565 561.198C612.771 560.991 613.029 560.837 613.236 560.63C615.404 558.823 617.624 556.965 619.534 552.99L620.102 551.751L618.708 551.699C612.978 551.441 607.661 554.074 604.202 557.068C604.925 553.764 605.389 549.428 604.357 545.298Z" fill="#6B7280" fill-opacity="0.015"/>
<path d="M589.545 568.483C589.545 568.225 589.545 567.915 589.597 567.657C589.7 565.592 589.752 563.476 589.132 560.791C588.874 559.811 588.565 558.83 588.152 557.797L587.584 556.455L586.603 557.539C584.331 560.069 582.008 563.166 581.544 567.193C581.079 571.529 581.234 574.575 582.163 578.395C582.37 579.169 582.576 580.047 582.886 580.976L583.041 581.389L583.454 581.544C591.507 584.745 596.773 585.622 605.084 585.312C611.382 585.106 616.389 581.854 620.829 578.447L621.965 577.569L620.674 576.898C614.376 573.697 609.782 573.594 605.29 573.491C604.826 573.491 604.413 573.491 603.948 573.439C597.547 573.233 590.681 575.969 586.603 577.982C587.893 575.556 589.39 571.994 589.545 568.483Z" fill="#6B7280" fill-opacity="0.015"/>
<path d="M569.622 595.091C571.274 592.562 573.235 588.948 573.7 585.283C573.752 584.973 573.752 584.715 573.803 584.406C574.165 581.824 574.474 579.14 573.597 575.423C573.493 574.958 573.339 574.442 573.184 573.926L572.719 572.532L571.635 573.513C568.899 576.094 566.266 579.037 565.492 583.167C564.408 588.484 564.459 592.046 565.647 597.724L565.75 598.137L566.163 598.344C574.319 602.422 579.74 603.867 588.464 604.28C595.124 604.642 600.854 601.544 605.551 598.499L606.79 597.724L605.551 596.95C599.305 593.078 594.452 592.51 589.806 591.943C589.342 591.891 588.877 591.839 588.361 591.788C581.547 591.013 574.01 593.285 569.622 595.091Z" fill="#6B7280" fill-opacity="0.015"/>
<path d="M550.573 611.099C552.534 608.621 555.012 604.956 555.838 601.084C555.89 600.775 555.993 600.465 556.045 600.207C556.716 597.161 557.387 594.012 556.303 589.211L555.993 587.766L554.858 588.643C551.76 591.069 548.766 593.909 547.527 598.142C545.927 603.614 545.617 607.331 546.34 613.371L546.391 613.835L546.753 614.093C554.909 619.101 560.484 621.114 569.57 622.353C576.488 623.334 582.786 620.65 588 617.862L589.29 617.191L588.103 616.313C581.908 611.667 576.849 610.635 571.996 609.654C571.532 609.551 571.016 609.447 570.551 609.344C563.582 607.847 555.374 609.654 550.573 611.099Z" fill="#6B7280" fill-opacity="0.015"/>
<path d="M550.782 625.803C543.451 623.532 534.572 624.719 529.461 625.855C531.784 623.48 534.779 619.763 536.018 615.737C536.121 615.427 536.224 615.117 536.327 614.808C537.308 611.71 538.289 608.458 537.618 603.347L537.411 601.902L536.172 602.728C532.714 604.999 529.307 607.684 527.655 612.02C525.486 617.595 524.815 621.467 525.022 627.868V628.333L525.383 628.591C533.488 634.579 539.115 637.212 548.51 639.329C555.634 640.98 562.19 638.864 568.23 636.334L569.573 635.767L568.488 634.786C562.397 629.314 557.235 627.817 552.227 626.32C551.763 626.113 551.246 625.958 550.782 625.803Z" fill="#6B7280" fill-opacity="0.015"/>
<path d="M528.742 641.043C521.205 637.997 511.706 638.41 506.286 639.133C508.97 636.861 512.481 633.196 514.184 629.014C514.339 628.705 514.442 628.343 514.597 628.034C515.888 624.833 517.282 621.581 516.972 616.16L516.92 614.715L515.63 615.386C511.81 617.451 507.989 619.929 505.873 624.317C503.085 629.995 502.053 633.97 501.691 640.681V641.146L502.001 641.456C509.951 648.528 515.63 651.729 525.283 654.826C532.614 657.201 539.686 655.6 546.19 653.535L547.584 653.071L546.603 651.987C540.718 645.74 535.504 643.624 530.394 641.61C529.774 641.456 529.258 641.249 528.742 641.043Z" fill="#6B7280" fill-opacity="0.015"/>
<path d="M506.129 655.439C505.613 655.181 505.045 654.923 504.529 654.613C496.837 650.69 486.719 650.329 480.988 650.587C483.983 648.47 488.112 644.908 490.332 640.623C490.487 640.314 490.642 639.952 490.848 639.643C492.5 636.442 494.256 633.138 494.462 627.46L494.514 626.014L493.171 626.582C489.197 628.286 484.757 630.609 482.124 635.048C478.665 640.727 477.272 644.753 476.239 651.774L476.188 652.239L476.497 652.548C484.137 660.653 489.764 664.628 499.676 668.758C507.11 671.907 514.647 670.875 521.719 669.274L523.164 668.964L522.287 667.829C516.557 660.705 511.24 658.02 506.129 655.439Z" fill="#6B7280" fill-opacity="0.015"/>
<path d="M477.378 665.768C469.789 660.605 459.155 658.953 453.115 658.489C456.522 656.682 461.426 653.481 464.265 649.197C464.472 648.887 464.678 648.577 464.885 648.267C467.053 645.118 469.273 641.866 470.202 635.981L470.46 634.536L469.066 634.949C464.678 636.188 459.774 638.098 456.47 642.331C452.134 647.803 450.121 651.881 448.159 659.057L448.056 659.47L448.314 659.831C455.283 669.278 460.652 674.131 470.408 679.706C477.791 683.939 485.792 683.836 493.329 683.061L494.775 682.906L494 681.668C489.096 673.563 483.882 670.104 478.823 666.748C478.41 666.439 477.894 666.129 477.378 665.768Z" fill="#6B7280" fill-opacity="0.015"/>
<path d="M462.712 693.064C458.944 683.824 454.091 679.384 449.393 675.048C448.929 674.635 448.464 674.17 448 673.757C440.566 666.84 429.622 663.536 423.84 662.194C427.66 660.903 433.39 658.373 437.159 654.347C437.417 654.037 437.727 653.779 437.985 653.469C440.721 650.578 443.56 647.584 445.522 641.596L445.986 640.202L444.541 640.409C439.585 641.028 434.371 642.164 430.241 645.984C424.872 650.94 422.085 654.863 418.884 662.039L418.678 662.452L418.884 662.865C424.563 673.809 429.364 679.694 438.604 687.127C445.573 692.754 453.885 693.942 461.835 694.406L463.28 694.51L462.712 693.064Z" fill="#6B7280" fill-opacity="0.015"/>
<path d="M418.836 679.159C418.371 678.643 417.958 678.178 417.494 677.662C410.628 670.022 399.374 665.324 393.076 663.311C397.206 662.279 403.504 660.162 407.84 656.239C408.15 655.981 408.46 655.671 408.77 655.413C411.919 652.625 415.171 649.734 417.752 643.694L418.32 642.352L416.874 642.404C411.609 642.61 406.085 643.281 401.387 646.946C395.296 651.644 392.044 655.464 388.017 662.692L387.811 663.105L387.965 663.518C392.921 675.546 397.412 682.153 406.395 690.723C413.157 697.279 421.779 699.292 430.09 700.48L431.535 700.686L431.122 699.292C428.025 689.226 423.379 684.115 418.836 679.159Z" fill="#6B7280" fill-opacity="0.015"/>
<path d="M383.843 658.754C384.049 658.496 384.204 658.186 384.359 657.876C386.114 654.986 387.972 651.991 388.54 646.726L388.695 645.539L387.56 645.9C383.533 647.294 379.455 649.101 376.667 653.024C373.053 658.083 371.453 661.8 370.008 668.304L369.956 668.666L370.163 668.924C370.214 668.975 379.351 665.362 383.843 658.754Z" fill="#6B7280" fill-opacity="0.015"/>
<path d="M338.21 658.754C338.003 658.496 337.849 658.186 337.694 657.876C335.939 654.986 334.08 651.991 333.512 646.726L333.357 645.539L334.493 645.9C338.52 647.294 342.598 649.101 345.386 653.024C348.999 658.083 350.599 661.8 352.045 668.304L352.097 668.666L351.89 668.924C351.838 668.975 342.701 665.362 338.21 658.754Z" fill="#6B7280" fill-opacity="0.015"/>
<path d="M357.67 655.86C357.67 655.499 357.721 655.189 357.773 654.828C358.083 651.472 358.392 647.962 361.025 643.367L361.593 642.335L362.264 643.316C364.69 646.826 366.859 650.749 366.755 655.499C366.652 661.694 365.723 665.669 362.987 671.708L362.832 672.018L362.471 672.121C362.522 672.173 357.36 663.81 357.67 655.86Z" fill="#6B7280" fill-opacity="0.015"/>
<path d="M113.923 533.459C115.42 538.208 115.213 540.996 114.697 545.9L114.49 547.965L112.735 546.881C111.961 546.416 106.592 541.925 105.353 536.453C104.682 533.562 104.217 530.31 105.095 525.922L105.508 523.96L107.108 525.199C109.689 527.109 112.787 529.793 113.923 533.459Z" fill="#6B7280" fill-opacity="0.015"/>
<path d="M119.088 545.298C119.346 544.266 119.656 543.285 120.069 542.407L120.688 541.065L121.617 542.149C123.94 544.833 126.109 547.879 126.47 551.906C126.831 556.036 126.676 558.978 125.799 562.437C125.541 563.418 125.231 564.45 124.87 565.637L124.611 566.36L123.837 566.257C123.476 566.205 115.371 564.915 110.88 561.198C110.673 560.991 110.415 560.837 110.209 560.63C108.04 558.823 105.821 556.965 103.911 552.99L103.343 551.751L104.737 551.699C110.467 551.441 115.784 554.074 119.243 557.068C118.52 553.764 118.055 549.428 119.088 545.298Z" fill="#6B7280" fill-opacity="0.015"/>
<path d="M133.955 568.483C133.955 568.225 133.955 567.915 133.904 567.657C133.801 565.592 133.749 563.476 134.368 560.791C134.627 559.811 134.936 558.83 135.349 557.797L135.917 556.455L136.898 557.539C139.169 560.069 141.492 563.166 141.957 567.193C142.422 571.529 142.267 574.575 141.337 578.395C141.131 579.169 140.925 580.047 140.615 580.976L140.46 581.389L140.047 581.544C131.994 584.745 126.728 585.622 118.417 585.312C112.119 585.106 107.111 581.854 102.672 578.447L101.536 577.569L102.827 576.898C109.125 573.697 113.719 573.594 118.21 573.491C118.675 573.491 119.088 573.491 119.553 573.439C125.954 573.233 132.82 575.969 136.898 577.982C135.556 575.556 134.059 571.994 133.955 568.483Z" fill="#6B7280" fill-opacity="0.015"/>
<path d="M153.823 595.091C152.171 592.562 150.209 588.948 149.745 585.283C149.693 584.973 149.693 584.715 149.641 584.406C149.28 581.824 148.97 579.14 149.848 575.423C149.951 574.958 150.106 574.442 150.261 573.926L150.726 572.532L151.81 573.513C154.546 576.094 157.178 579.037 157.953 583.167C159.037 588.484 158.985 592.046 157.798 597.724L157.695 598.137L157.282 598.344C149.125 602.422 143.705 603.867 134.98 604.28C128.321 604.642 122.591 601.544 117.893 598.499L116.654 597.724L117.893 596.95C124.14 593.078 128.992 592.51 133.638 591.943C134.103 591.891 134.567 591.839 135.084 591.788C141.898 591.013 149.435 593.285 153.823 595.091Z" fill="#6B7280" fill-opacity="0.015"/>
<path d="M172.876 611.099C170.915 608.621 168.437 604.956 167.611 601.084C167.559 600.775 167.456 600.465 167.404 600.207C166.733 597.161 166.062 594.012 167.146 589.211L167.456 587.766L168.592 588.643C171.689 591.069 174.683 593.909 175.922 598.142C177.523 603.614 177.832 607.331 177.11 613.371L177.058 613.835L176.697 614.093C168.54 619.101 162.965 621.114 153.879 622.353C146.962 623.334 140.664 620.65 135.45 617.862L134.159 617.191L135.347 616.313C141.541 611.667 146.6 610.635 151.453 609.654C151.918 609.551 152.434 609.447 152.898 609.344C159.867 607.847 168.127 609.654 172.876 611.099Z" fill="#6B7280" fill-opacity="0.015"/>
<path d="M172.719 625.803C180.049 623.532 188.928 624.719 194.039 625.855C191.716 623.48 188.722 619.763 187.483 615.737C187.379 615.427 187.276 615.117 187.173 614.808C186.192 611.71 185.211 608.458 185.882 603.347L186.089 601.902L187.328 602.728C190.787 604.999 194.194 607.684 195.846 612.02C198.014 617.595 198.685 621.467 198.478 627.868V628.333L198.117 628.591C190.012 634.579 184.385 637.212 174.99 639.329C167.866 640.98 161.31 638.864 155.27 636.334L153.928 635.767L155.012 634.786C161.103 629.314 166.266 627.817 171.273 626.32C171.738 626.113 172.202 625.958 172.719 625.803Z" fill="#6B7280" fill-opacity="0.015"/>
<path d="M194.76 641.043C202.297 637.997 211.796 638.41 217.216 639.133C214.532 636.861 211.022 633.196 209.318 629.014C209.163 628.705 209.06 628.343 208.905 628.034C207.615 624.833 206.221 621.581 206.53 616.16L206.582 614.715L207.873 615.386C211.693 617.451 215.513 619.929 217.629 624.317C220.417 629.995 221.449 633.97 221.811 640.681V641.146L221.501 641.456C213.551 648.528 207.873 651.729 198.219 654.826C190.889 657.201 183.816 655.6 177.312 653.535L175.918 653.071L176.899 651.987C182.784 645.74 187.998 643.624 193.108 641.61C193.728 641.456 194.244 641.249 194.76 641.043Z" fill="#6B7280" fill-opacity="0.015"/>
<path d="M217.366 655.439C217.882 655.181 218.45 654.923 218.966 654.613C226.658 650.69 236.776 650.329 242.506 650.587C239.512 648.47 235.382 644.908 233.162 640.623C233.007 640.314 232.853 639.952 232.646 639.643C230.994 636.442 229.239 633.138 229.032 627.46L228.981 626.014L230.323 626.582C234.298 628.286 238.738 630.609 241.37 635.048C244.829 640.727 246.223 644.753 247.255 651.774L247.307 652.239L246.997 652.548C239.357 660.653 233.73 664.628 223.819 668.758C216.385 671.907 208.848 670.875 201.776 669.274L200.33 668.964L201.208 667.829C206.886 660.705 212.203 658.02 217.366 655.439Z" fill="#6B7280" fill-opacity="0.015"/>
<path d="M246.069 665.768C253.657 660.605 264.292 658.953 270.332 658.489C266.925 656.682 262.02 653.481 259.181 649.197C258.975 648.887 258.768 648.577 258.562 648.267C256.393 645.118 254.174 641.866 253.244 635.981L252.986 634.536L254.38 634.949C258.768 636.188 263.672 638.098 266.976 642.331C271.313 647.803 273.326 651.881 275.287 659.057L275.391 659.47L275.133 659.831C268.164 669.278 262.795 674.131 253.038 679.706C245.656 683.939 237.654 683.836 230.117 683.061L228.672 682.906L229.446 681.668C234.35 673.563 239.564 670.104 244.623 666.748C245.036 666.439 245.553 666.129 246.069 665.768Z" fill="#6B7280" fill-opacity="0.015"/>
<path d="M260.729 693.064C264.497 683.824 269.35 679.384 274.048 675.048C274.512 674.635 274.977 674.17 275.442 673.757C282.875 666.84 293.819 663.536 299.601 662.194C295.781 660.903 290.051 658.373 286.282 654.347C286.024 654.037 285.715 653.779 285.456 653.469C282.72 650.578 279.881 647.584 277.919 641.596L277.455 640.202L278.9 640.409C283.856 641.028 289.07 642.164 293.2 645.984C298.569 650.94 301.356 654.863 304.557 662.039L304.763 662.452L304.557 662.865C298.878 673.809 294.077 679.694 284.837 687.127C277.868 692.754 269.557 693.942 261.607 694.406L260.161 694.51L260.729 693.064Z" fill="#6B7280" fill-opacity="0.015"/>
<path d="M304.605 679.159C305.069 678.643 305.482 678.178 305.947 677.662C312.813 670.022 324.066 665.324 330.364 663.311C326.235 662.279 319.937 660.162 315.6 656.239C315.291 655.981 314.981 655.671 314.671 655.413C311.522 652.625 308.27 649.734 305.689 643.694L305.121 642.352L306.566 642.404C311.832 642.61 317.355 643.281 322.053 646.946C328.145 651.644 331.397 655.464 335.424 662.692L335.63 663.105L335.475 663.518C330.519 675.546 326.028 682.153 317.046 690.723C310.283 697.279 301.662 699.292 293.351 700.48L291.905 700.686L292.318 699.292C295.416 689.226 300.113 684.115 304.605 679.159Z" fill="#6B7280" fill-opacity="0.015"/>
</svg>
