<svg width="1145" height="1155" viewBox="0 0 1145 1155" fill="none" xmlns="http://www.w3.org/2000/svg">
<g opacity="0.02">
<path d="M572.528 1148.91C885.343 1148.91 1138.93 893.089 1138.93 577.52C1138.93 261.95 885.343 6.1307 572.528 6.1307C259.714 6.1307 6.12698 261.95 6.12698 577.52C6.12698 893.089 259.714 1148.91 572.528 1148.91Z" fill="white"/>
<path d="M572.541 1155C256.882 1155 0 895.938 0 577.5C0 259.062 256.882 0 572.541 0C888.2 0 1145 259.062 1145 577.583C1145 896.104 888.2 1155 572.541 1155ZM572.541 12.3874C263.595 12.3874 12.2793 265.916 12.2793 577.583C12.2793 889.249 263.595 1142.7 572.541 1142.7C881.487 1142.7 1132.72 889.167 1132.72 577.583C1132.72 265.999 881.487 12.3874 572.541 12.3874Z" fill="black"/>
<path d="M490.28 530.072V1009.88C474.726 1006.9 459.5 1003.11 444.601 998.481V576.153L490.28 530.072Z" fill="black"/>
<path d="M559.633 462.441L513.954 508.522V1017.73H559.633V462.441Z" fill="black"/>
<path d="M700.499 576.153V998.481C685.6 1003.11 670.292 1006.9 654.738 1009.88V530.072L700.499 576.153Z" fill="black"/>
<path d="M584.295 462.441L629.974 508.522V1017.73H584.295V462.441Z" fill="black"/>
<path d="M742.847 565.798C742.683 562.907 742.52 560.017 742.192 557.209C742.192 557.044 742.192 556.796 742.11 556.631C741.947 554.649 741.701 552.75 741.455 550.85C741.292 549.942 741.21 549.033 741.046 548.125C740.8 546.391 740.473 544.657 740.146 542.922C739.573 539.454 738.836 536.068 737.935 532.765C736.38 526.075 734.333 519.551 731.878 513.193C730.65 509.972 729.34 506.834 727.948 503.778C726.557 500.64 725.083 497.584 723.528 494.611L721.563 490.813L721.481 490.648C719.271 486.684 716.815 482.637 714.277 478.756C712.967 476.856 711.658 474.957 710.266 473.057C709.12 471.406 707.892 469.754 706.664 468.185C706.337 467.772 706.009 467.359 705.682 466.946C704.372 465.295 703.062 463.726 701.752 462.156C700.279 460.34 698.724 458.605 697.168 456.954C697.086 456.871 697.086 456.871 697.086 456.871C695.613 455.137 693.976 453.485 692.338 451.916C689.064 448.696 685.708 445.557 682.188 442.584C680.387 441.015 678.586 439.611 676.785 438.208C674.984 436.721 673.101 435.4 671.218 433.996C669.335 432.675 667.452 431.353 665.569 430.032C663.605 428.793 661.64 427.554 659.676 426.316C653.945 422.93 648.051 419.792 641.993 417.066C640.52 416.406 639.128 415.663 637.655 415.084C635.772 414.341 633.971 413.515 632.006 412.855C630.533 412.277 629.059 411.699 627.504 411.203C625.621 410.542 623.738 409.882 621.855 409.304C619.481 408.56 617.026 407.9 614.652 407.239C612.605 406.744 610.558 406.248 608.512 405.835C606.875 405.422 605.156 405.092 603.518 404.762C599.18 403.936 594.759 403.358 590.339 402.862L587.392 402.532C586.655 402.449 585.836 402.449 585.099 402.367C583.298 402.202 581.416 402.119 579.615 402.036C576.995 401.871 574.376 401.789 571.674 401.789C568.727 401.789 565.78 401.871 562.833 402.036C560.213 402.119 557.676 402.367 555.138 402.614C549.981 403.11 544.987 403.853 539.994 404.762C538.275 405.092 536.637 405.422 534.918 405.753C528.042 407.322 521.329 409.304 514.78 411.616C513.225 412.111 511.751 412.69 510.278 413.268C506.43 414.672 502.665 416.323 498.981 418.14C497.098 419.048 495.297 419.957 493.496 420.865C488.093 423.673 482.854 426.729 477.779 430.114L475.077 431.931C471.803 434.161 468.61 436.556 465.581 438.951C465.418 439.116 465.336 439.199 465.254 439.199C462.225 441.676 459.278 444.154 456.495 446.714C456.413 446.796 456.331 446.879 456.249 446.961C453.629 449.356 451.092 451.834 448.636 454.394C448.227 454.807 447.817 455.137 447.49 455.632C447.081 456.045 446.671 456.458 446.344 456.871C444.625 458.605 443.069 460.422 441.596 462.239C440.859 462.982 440.286 463.726 439.631 464.469L438.812 465.542C433.901 471.654 429.317 478.095 425.305 484.867C423.259 488.253 421.294 491.721 419.493 495.19C417.692 498.741 416.055 502.374 414.418 506.008C413.435 508.485 412.371 510.963 411.471 513.44C410.57 515.918 409.67 518.478 408.851 521.038L408.36 522.359C407.951 523.515 407.623 524.754 407.296 525.91C406.805 527.397 406.395 528.883 406.068 530.37C405.167 533.838 404.349 537.307 403.612 540.775C403.121 543.253 402.711 545.73 402.302 548.208C401.893 551.181 401.484 554.236 401.238 557.374C400.91 560.182 400.665 562.99 400.583 565.798C400.419 568.771 400.337 571.744 400.337 574.717V576.203C400.337 578.681 400.419 581.158 400.583 583.635C400.665 586.196 400.911 588.756 401.156 591.316C401.156 591.894 401.238 592.554 401.32 593.132C401.565 595.114 401.811 597.096 402.057 599.078C402.138 599.739 402.22 600.4 402.302 601.06C402.875 604.859 403.612 608.575 404.431 612.292C404.594 612.952 404.676 613.613 404.84 614.191C405.167 615.677 405.577 617.164 405.986 618.651C406.477 620.633 406.968 622.532 407.541 624.431L407.623 624.596C408.687 628.23 409.833 631.781 411.225 635.332C412.207 637.975 413.272 640.617 414.336 643.178C417.61 650.94 421.458 658.373 425.878 665.475C429.235 671.173 433.082 676.623 437.257 681.826C438.649 683.56 440.04 685.295 441.514 687.029C442.496 688.185 443.56 689.424 444.625 690.58V648.711C432.018 626.909 424.896 601.638 424.896 574.717C424.896 492.96 490.713 426.563 571.674 426.563C652.717 426.563 718.534 492.96 718.534 574.717C718.534 600.4 711.985 624.596 700.524 645.655V688.68C701.098 687.937 701.752 687.194 702.489 686.451C705.927 682.404 709.038 678.11 712.067 673.733C712.394 673.403 712.64 672.99 712.886 672.577C715.587 668.613 718.207 664.401 720.581 660.19C720.99 659.446 721.481 658.703 721.89 657.96L723.2 655.482C723.2 655.4 723.282 655.4 723.282 655.317C724.182 653.583 725.083 651.849 725.902 650.114C726.802 648.38 727.621 646.563 728.439 644.664C729.258 642.847 729.995 641.03 730.731 639.131C732.287 635.415 733.597 631.616 734.825 627.817C735.234 626.496 735.643 625.257 736.052 623.936C736.625 621.954 737.198 619.889 737.69 617.907C738.181 616.173 738.59 614.356 738.918 612.622C739.163 611.796 739.327 610.888 739.491 610.062C739.654 609.319 739.818 608.493 739.9 607.75C740.473 605.024 740.882 602.382 741.292 599.656C742.438 591.563 743.093 583.223 743.093 574.717C743.093 571.744 743.011 568.771 742.847 565.798Z" fill="#7D8191"/>
<path d="M786.748 537.778C786.666 536.869 785.765 536.208 784.947 536.374L770.048 538.769C769.229 538.851 768.411 538.273 768.247 537.447C766.364 527.537 763.826 517.875 760.634 508.461C760.388 507.717 760.716 506.892 761.371 506.561L776.679 498.303C777.497 497.89 777.825 496.899 777.334 496.073L763.171 469.069C762.762 468.326 761.698 467.995 760.961 468.408L747.618 475.593C746.881 476.006 745.899 475.675 745.489 474.932C740.578 466.261 735.011 457.92 728.871 450.075C728.38 449.497 728.462 448.588 728.953 448.01L740.905 435.127C741.478 434.467 741.478 433.393 740.823 432.815L718.639 411.922C717.984 411.344 716.92 411.344 716.347 412.004L706.032 423.153C705.459 423.814 704.477 423.896 703.822 423.318C696.372 416.712 688.432 410.683 680.164 405.233C679.509 404.82 679.263 403.911 679.509 403.251L686.631 387.147C687.04 386.321 686.631 385.33 685.812 385L658.143 372.53C657.324 372.199 656.342 372.53 655.933 373.356L649.875 387.229C649.547 387.973 648.647 388.386 647.828 388.055C638.742 384.257 629.246 381.118 619.586 378.723C618.767 378.558 618.276 377.815 618.358 377.072L619.832 359.564C619.913 358.656 619.259 357.913 618.358 357.83L588.233 355.187C587.333 355.105 586.514 355.766 586.432 356.674L585.122 371.704C585.04 372.612 584.304 373.273 583.403 373.273C579.474 373.025 575.626 372.86 571.615 372.86C565.639 372.86 559.663 373.108 553.687 373.686C552.951 373.769 552.214 373.19 552.05 372.447L547.793 355.518C547.63 354.609 546.729 354.031 545.829 354.279L516.44 361.711C515.54 361.877 515.049 362.785 515.294 363.693L518.896 378.393C519.142 379.219 518.569 380.127 517.75 380.293C508.172 383.018 498.84 386.486 489.835 390.533C489.098 390.863 488.28 390.615 487.871 389.955L478.375 375.255C477.883 374.512 476.901 374.264 476.164 374.76L450.705 391.441C449.969 391.937 449.723 392.928 450.214 393.671L458.482 406.471C458.891 407.214 458.728 408.123 457.991 408.618C449.887 414.317 442.192 420.675 434.988 427.53C434.415 428.025 433.514 428.108 432.859 427.612L419.107 416.711C418.37 416.216 417.388 416.299 416.815 417.042L398.15 441.073C397.577 441.817 397.741 442.89 398.478 443.468L410.347 452.8C411.002 453.296 411.166 454.287 410.593 455.03C404.781 463.04 399.542 471.546 394.876 480.383C394.466 481.126 393.648 481.456 392.911 481.126L376.457 475.428C375.638 475.18 374.656 475.593 374.41 476.501L364.505 505.405C364.259 506.231 364.669 507.139 365.569 507.47L379.731 512.425C380.55 512.672 380.959 513.581 380.714 514.407C377.766 523.821 375.556 533.566 374.001 543.558C373.837 544.384 373.182 544.962 372.364 544.962H355.091C354.19 544.962 353.454 545.706 353.454 546.614V577.169C353.454 578.078 354.19 578.821 355.091 578.821H370.153C370.972 578.821 371.709 579.564 371.709 580.39C371.954 589.309 372.773 598.145 374.165 606.734C374.328 607.477 373.837 608.303 373.1 608.551L356.564 613.919C355.746 614.166 355.255 615.157 355.5 615.983L364.914 645.052C365.16 645.961 366.06 646.374 366.961 646.126L381.287 641.419C382.105 641.171 382.924 641.584 383.251 642.41C386.608 651.907 390.619 661.073 395.285 669.827C395.612 670.57 395.449 671.396 394.794 671.892L380.959 682.462C380.222 682.958 380.14 684.031 380.632 684.775L398.887 709.136C399.46 709.88 400.442 710.045 401.179 709.467L413.294 700.3C413.949 699.722 414.932 699.887 415.505 700.548C424.182 711.449 433.924 721.441 444.566 730.278V690.555C443.501 689.399 442.437 688.16 441.455 687.004C439.981 685.27 438.59 683.536 437.198 681.802C433.105 676.599 429.339 671.148 425.819 665.45C421.563 658.348 417.633 650.916 414.277 643.153C413.213 640.593 412.148 637.95 411.166 635.307C409.774 631.756 408.628 628.205 407.564 624.572L407.482 624.407C406.909 622.507 406.418 620.608 405.927 618.626C405.518 617.139 405.108 615.653 404.781 614.166C404.617 613.588 404.535 612.928 404.372 612.267C403.553 608.551 402.816 604.835 402.243 601.036C402.161 600.375 402.079 599.714 401.998 599.054C401.752 597.072 401.506 595.09 401.261 593.108C401.179 592.53 401.097 591.869 401.097 591.291C400.851 588.731 400.606 586.171 400.524 583.611C400.36 581.133 400.278 578.656 400.278 576.178V573.123C400.278 570.645 400.36 568.25 400.524 565.773C400.606 562.965 400.851 560.157 401.179 557.35C401.424 554.211 401.834 551.156 402.243 548.183C402.652 545.706 403.062 543.228 403.553 540.751C404.29 537.282 405.108 533.814 406.009 530.345C406.336 528.859 406.746 527.372 407.237 525.886C407.564 524.729 407.892 523.491 408.301 522.335L408.792 521.013C409.611 518.453 410.511 515.893 411.412 513.416C412.312 510.938 413.376 508.461 414.359 505.983C415.996 502.35 417.633 498.716 419.434 495.165C421.235 491.696 423.2 488.228 425.246 484.842C429.257 478.07 433.842 471.629 438.753 465.518L439.572 464.444C440.227 463.701 440.8 462.958 441.537 462.214C443.01 460.398 444.566 458.581 446.285 456.847C446.612 456.434 447.021 456.021 447.431 455.608C447.758 455.112 448.168 454.782 448.577 454.369C451.033 451.809 453.57 449.332 456.19 446.937C456.272 446.854 456.354 446.772 456.436 446.689C459.219 444.129 462.166 441.651 465.195 439.174C465.277 439.174 465.359 439.091 465.522 438.926C468.551 436.531 471.744 434.136 475.018 431.907L477.72 430.09C482.795 426.704 488.034 423.648 493.437 420.841C495.238 419.932 497.039 419.024 498.922 418.115C502.606 416.299 506.371 414.647 510.219 413.243C511.692 412.665 513.166 412.087 514.721 411.591C521.27 409.279 527.983 407.297 534.859 405.728C536.578 405.398 538.215 405.067 539.935 404.737C544.928 403.829 549.922 403.085 555.079 402.59C557.617 402.342 560.154 402.094 562.774 402.012C565.721 401.847 568.668 401.764 571.615 401.764C574.317 401.764 576.936 401.847 579.556 402.012C581.357 402.094 583.239 402.177 585.04 402.342C585.777 402.425 586.596 402.425 587.333 402.507L590.28 402.838C594.7 403.333 599.121 403.911 603.459 404.737C605.096 405.067 606.816 405.398 608.453 405.811C610.499 406.224 612.546 406.719 614.592 407.214C616.966 407.875 619.422 408.536 621.796 409.279C623.679 409.857 625.562 410.518 627.445 411.178C629 411.674 630.474 412.252 631.947 412.83C633.912 413.491 635.713 414.317 637.596 415.06C639.069 415.638 640.461 416.381 641.934 417.042C647.992 419.767 653.886 422.905 659.616 426.291C661.581 427.53 663.546 428.769 665.51 430.007C667.393 431.329 669.276 432.65 671.159 433.971C673.042 435.375 674.925 436.696 676.726 438.183C678.526 439.587 680.327 440.991 682.128 442.56C685.648 445.533 689.005 448.671 692.279 451.892C693.917 453.461 695.554 455.112 697.027 456.847C697.027 456.847 697.027 456.847 697.109 456.929C698.664 458.581 700.22 460.315 701.693 462.132C703.003 463.701 704.313 465.27 705.623 466.922C705.95 467.335 706.278 467.748 706.605 468.16C707.833 469.73 709.061 471.381 710.207 473.033C711.599 474.932 712.908 476.832 714.218 478.731C716.756 482.612 719.212 486.659 721.422 490.623L721.504 490.788L723.469 494.587C725.024 497.56 726.497 500.615 727.889 503.754C729.281 506.809 730.591 509.947 731.818 513.168C734.192 519.527 736.239 526.051 737.876 532.74C738.777 536.043 739.513 539.429 740.086 542.898C740.414 544.632 740.741 546.366 740.987 548.1C741.151 549.009 741.233 549.917 741.396 550.826C741.642 552.725 741.887 554.624 742.051 556.606C742.133 556.772 742.133 557.019 742.133 557.184C742.46 559.992 742.624 562.883 742.788 565.773C742.952 568.746 743.034 571.719 743.034 574.692C743.034 583.198 742.379 591.539 741.233 599.632C740.823 602.357 740.414 605 739.841 607.725C739.759 608.468 739.595 609.294 739.432 610.037C739.268 610.863 739.104 611.771 738.859 612.597C738.531 614.332 738.122 616.148 737.631 617.883C737.139 619.865 736.566 621.929 735.993 623.911C735.584 625.232 735.175 626.471 734.766 627.793C733.538 631.591 732.228 635.39 730.672 639.106C729.936 641.006 729.199 642.823 728.38 644.639C727.562 646.539 726.743 648.356 725.843 650.09C725.024 651.824 724.123 653.558 723.223 655.293C723.223 655.375 723.141 655.375 723.141 655.458L721.831 657.935C721.422 658.678 720.931 659.422 720.522 660.165C718.148 664.377 715.528 668.588 712.827 672.552C712.581 672.965 712.335 673.378 712.008 673.708C709.061 678.085 705.868 682.38 702.43 686.426C701.693 687.169 701.038 687.913 700.465 688.656V728.874C711.189 719.79 720.931 709.632 729.526 698.483C730.017 697.823 730.836 697.657 731.573 698.07L746.799 706.576C747.618 706.989 748.6 706.742 749.009 705.916L763.745 679.159C764.154 678.416 763.826 677.342 763.09 676.929L749.91 669.579C749.173 669.166 748.846 668.175 749.255 667.432C753.839 658.596 757.687 649.429 760.961 639.85C761.207 639.106 761.944 638.693 762.762 638.776L779.789 641.832C780.69 641.997 781.59 641.419 781.754 640.51L786.993 610.45C787.157 609.542 786.502 608.633 785.683 608.468L770.866 605.908C770.048 605.743 769.475 604.917 769.557 604.009C770.948 594.429 771.685 584.602 771.685 574.692V572.793L790.186 569.82C791.086 569.654 791.659 568.829 791.496 567.92L786.748 537.778Z" fill="black"/>
<path d="M559.639 462.441L513.961 508.522V1017.73H559.639V462.441Z" fill="#39AFE7"/>
<path d="M700.505 576.177V998.505C685.606 1003.13 670.298 1006.93 654.744 1009.9V530.096L700.505 576.177Z" fill="#39AFE7"/>
<path d="M640.114 256.414L575.116 177.135L571.76 213.141C372.672 213.636 211.404 376.489 211.404 577.495C211.404 617.465 217.79 655.784 229.578 691.707L256.101 642.653L306.61 670.483C296.623 641.414 291.138 610.115 291.138 577.495C291.138 423.479 412.621 298.284 564.147 293.824L561.527 321.985L640.114 256.414Z" fill="black"/>
<path d="M786.613 821.243L785.222 763.022C733.649 823.225 657.517 861.296 572.463 861.296C471.282 861.296 382.789 807.287 333.181 726.521L358.64 714.794L263.026 678.953L227.498 775.41L260.079 760.38C322.621 868.893 439.028 941.896 572.381 941.896C679.538 941.896 775.644 894.824 841.706 820.004L786.613 821.243Z" fill="#FFEF79"/>
<path d="M572.466 943.913C444.27 943.913 324.425 874.626 259.263 762.975L223.817 779.326L261.8 676.263L363.964 714.581L336.131 727.382C387.704 809.964 475.869 859.184 572.384 859.184C653.509 859.184 730.459 823.59 783.587 761.654L787.025 757.607L788.499 819.131L846.375 817.727L843.264 821.278C774.582 899.236 675.857 943.913 572.466 943.913ZM260.982 757.69L261.882 759.341C326.062 870.663 445.089 939.867 572.466 939.867C673.074 939.867 769.261 897.089 837.125 822.187L784.651 823.425L783.341 768.425C729.558 828.876 653.018 863.478 572.466 863.478C473.74 863.478 383.611 812.772 331.465 727.712L330.237 725.73L353.322 715.077L264.256 681.714L231.102 771.563L260.982 757.69Z" fill="black"/>
<path d="M933.693 577.509C933.693 401.608 810.164 254.859 645.867 220.752L674.764 268.402L625.566 298.71C755.562 323.65 853.878 439.018 853.878 577.509C853.878 626.15 841.599 671.818 820.151 711.871L797.311 695.52L814.339 796.931L914.865 779.754L885.64 758.778C916.175 705.429 933.693 643.575 933.693 577.509Z" fill="#D6001A"/>
<path d="M584.302 462.441L629.98 508.522V1017.73H584.302V462.441Z" fill="#39AFE7"/>
<path d="M490.28 530.096V1009.9C474.726 1006.93 459.5 1003.13 444.601 998.505V576.177L490.28 530.096Z" fill="#39AFE7"/>
<path d="M572.508 1023.89C568.088 1023.89 563.749 1023.81 559.328 1023.64C543.775 1023.23 528.139 1021.99 512.995 1019.84C504.072 1018.6 496.213 1017.37 489.009 1015.88C473.374 1012.91 457.738 1009.03 442.757 1004.32C255.703 946.51 129.964 774.986 129.964 577.366C129.964 331.188 328.478 130.925 572.508 130.925C816.456 130.925 1014.97 331.188 1014.97 577.366C1014.97 774.904 889.313 946.51 702.259 1004.32C687.278 1008.94 671.724 1012.82 655.843 1015.88C647.739 1017.53 639.553 1018.85 630.794 1020.01C615.485 1022.07 599.932 1023.31 584.542 1023.72C580.449 1023.81 576.519 1023.89 572.508 1023.89ZM572.508 143.395C335.273 143.395 142.243 338.125 142.243 577.449C142.243 769.536 264.462 936.353 446.359 992.509C461.012 997.051 476.157 1000.85 491.383 1003.74C498.341 1005.14 505.954 1006.38 514.632 1007.54C529.367 1009.6 544.593 1010.76 559.738 1011.17C568.088 1011.5 576.028 1011.42 584.132 1011.26C599.113 1010.84 614.258 1009.6 629.156 1007.7C637.67 1006.63 645.611 1005.31 653.469 1003.74C668.941 1000.77 684.086 997.051 698.657 992.509C880.554 936.353 1002.69 769.536 1002.69 577.449C1002.69 338.125 809.743 143.395 572.508 143.395Z" fill="black"/>
<path d="M48.3285 719.146L44.8903 702.547L90.9785 661.586L38.6688 672.487L35.6399 657.787L110.625 642.096L113.9 657.87L66.993 699.822L120.203 688.673L123.232 703.373L48.3285 719.146Z" fill="black"/>
<path d="M31.6018 607.321L30.9469 589.071L106.423 558.763L107.078 576.27L91.5246 581.969L92.5888 610.377L108.552 615.002L109.207 631.848L31.6018 607.321ZM79.2453 606.495L78.5086 586.758L48.7928 597.659L79.2453 606.495Z" fill="black"/>
<path d="M36.4928 492.295L50 493.616L47.7898 516.657L110.496 522.85L108.94 539.037L46.2344 532.843L44.0241 555.966L30.5169 554.645L36.4928 492.295Z" fill="black"/>
<path d="M118.606 474.633L115.414 490.323L40.4283 474.715L43.6209 459.025L118.606 474.633Z" fill="black"/>
<path d="M133.919 399.793C137.685 407.225 137.849 416.227 134.328 426.632C130.808 437.12 125.324 444.14 117.792 447.691C108.378 452.728 97.1633 453.058 84.1472 448.516C70.8856 443.974 62.1264 436.872 57.9515 427.128C54.1858 419.695 54.0221 410.694 57.5422 400.288C61.0622 389.8 66.547 382.781 74.0782 379.23C83.2468 374.11 94.4618 373.862 107.723 378.404C120.739 382.863 129.417 390.048 133.919 399.793ZM119.675 405.573C116.483 400.536 110.752 396.572 102.566 393.764C94.4618 390.956 87.5854 390.626 81.937 392.608C76.2885 394.59 72.441 398.719 70.3945 404.748C68.3479 410.776 68.921 416.392 72.1136 421.512C75.3062 426.632 81.0365 430.596 89.2227 433.404C97.4088 436.212 104.285 436.542 109.934 434.477C115.582 432.413 119.43 428.284 121.476 422.255C123.441 416.144 122.868 410.611 119.675 405.573Z" fill="black"/>
<path d="M82.4204 342.56L90.4429 327.695L151.921 326.621L105.096 300.773L112.3 287.56L179.508 324.639L171.813 338.761L109.189 340L156.833 366.343L149.629 379.557L82.4204 342.56Z" fill="black"/>
<path d="M141.469 246.438L152.684 232.069L229.634 258.413L218.91 272.204L203.438 266.423L186.002 288.803L195.17 302.759L184.774 316.055L141.469 246.438ZM178.307 276.994L190.422 261.468L160.788 250.319L178.307 276.994Z" fill="black"/>
<path d="M185.252 194.661L196.958 183.678L239.854 230.007L267.85 203.663L277.264 213.82L237.562 251.148L185.252 194.661Z" fill="black"/>
<path d="M314.923 98.602C317.952 98.189 320.899 98.5194 323.846 99.593C326.22 100.419 328.43 101.658 330.477 103.227C332.523 104.796 334.242 106.86 335.798 109.503C337.68 112.641 338.663 116.275 338.908 120.239C339.154 124.203 337.762 127.919 334.897 131.387C338.663 130.809 341.855 131.305 344.475 132.791C347.094 134.278 349.714 137.416 352.497 142.04L355.117 146.5C356.918 149.555 358.228 151.537 359.128 152.446C360.52 153.932 362.075 154.676 363.876 154.758L364.858 156.41L349.632 165.494C348.322 164.255 347.34 163.264 346.685 162.438C345.212 160.787 343.902 158.97 342.756 157.07L339.072 150.959C336.534 146.748 334.16 144.353 331.95 143.775C329.74 143.197 326.711 144.022 322.863 146.335L309.356 154.345L324.583 180.441L311.075 188.452L272.191 121.89L303.708 103.144C308.046 100.419 311.894 98.9323 314.923 98.602ZM292.165 125.359L302.644 143.279L317.461 134.443C320.408 132.709 322.372 130.974 323.436 129.405C325.319 126.597 325.156 123.294 322.945 119.578C320.571 115.531 317.706 113.549 314.432 113.715C312.549 113.797 310.175 114.623 307.392 116.357L292.165 125.359Z" fill="black"/>
<path d="M408.082 70.1958L370.343 85.0606L376.237 100.338L410.865 86.7123L415.695 99.1823L381.067 112.808L388.189 131.307L427.728 115.781L432.722 128.747L378.611 150.053L350.778 78.0411L403.088 57.4781L408.082 70.1958Z" fill="black"/>
<path d="M472.67 40.0058L488.878 36.3722L479.874 117.468L465.138 120.772L423.389 50.9067L440.089 47.1905L468.822 100.869L472.67 40.0058Z" fill="black"/>
<path d="M568.335 43.9502L527.896 46.5102L528.878 62.8616L566.043 60.5493L566.862 73.9276L529.697 76.24L530.925 96.0598L573.247 93.4171L574.148 107.291L516.19 110.925L511.441 33.7925L567.517 30.2415L568.335 43.9502Z" fill="black"/>
<path d="M594.447 30.5565L611.147 32.2081L636.279 88.7772L641.354 35.1811L656.171 36.585L648.886 113.469L632.923 111.9L607.054 54.3403L601.897 108.927L587.08 107.523L594.447 30.5565Z" fill="black"/>
<path d="M684.301 41.8L700.018 46.0943L687.82 91.9277C686.429 97.0478 686.02 100.929 686.593 103.654C687.329 108.362 690.849 111.5 697.153 113.234C703.374 114.968 707.959 113.895 710.987 110.261C712.788 108.196 714.426 104.645 715.735 99.5253L727.933 53.6919L743.65 57.9862L731.453 103.82C729.324 111.747 726.459 117.611 722.857 121.327C716.145 128.181 706.403 129.916 693.633 126.447C680.862 122.979 673.249 116.537 670.793 107.205C669.565 102.085 669.975 95.6439 672.103 87.716L684.301 41.8Z" fill="black"/>
<path d="M816.22 103.739L779.301 86.8918L772.588 101.839L806.479 117.282L801.076 129.587L767.185 114.144L759.081 132.23L797.72 149.82L792.071 162.455L739.189 138.341L770.705 67.8978L821.869 91.1861L816.22 103.739Z" fill="black"/>
<path d="M891.333 135.529L905.823 146.512L881.428 224.718L867.594 214.148L872.996 198.374L850.484 181.28L836.895 190.859L823.552 180.702L891.333 135.529ZM861.863 173.269L877.499 185.161L887.895 155.018L861.863 173.269Z" fill="black"/>
<path d="M944.212 178.734L955.427 190.626L921.373 223.329C917.525 226.962 915.233 230.101 914.333 232.743C912.532 237.12 913.923 241.745 918.344 246.452C922.764 251.159 927.267 252.728 931.687 251.159C934.307 250.416 937.5 248.186 941.347 244.47L975.401 211.767L986.617 223.659L952.48 256.362C946.586 262.06 941.101 265.529 936.108 266.85C926.858 269.162 917.689 265.529 908.52 255.866C899.352 246.204 896.241 236.707 898.943 227.458C900.498 222.42 904.182 217.135 910.076 211.437L944.212 178.734Z" fill="black"/>
<path d="M1035.63 291.999L1024.5 299.762L1011.4 280.768L959.585 317.021L950.417 303.643L1002.23 267.389L989.137 248.313L1000.27 240.55L1035.63 291.999Z" fill="black"/>
<path d="M977.682 344.865L1046.53 311.089L1053.49 325.541L1027.21 338.424L1040.22 365.428L1066.5 352.545L1073.46 366.997L1004.62 400.774L997.657 386.322L1028.44 371.209L1015.42 344.205L984.641 359.317L977.682 344.865Z" fill="black"/>
<path d="M1033.3 471.066C1026.02 467.102 1020.78 459.835 1017.83 449.182C1014.8 438.529 1015.37 429.61 1019.55 422.342C1024.46 412.763 1033.46 406.074 1046.73 402.275C1060.23 398.393 1071.37 399.219 1080.29 404.752C1087.58 408.716 1092.81 415.983 1095.76 426.637C1098.79 437.29 1098.22 446.209 1094.04 453.476C1089.38 462.89 1080.37 469.58 1066.86 473.461C1053.6 477.342 1042.47 476.516 1033.3 471.066ZM1041.73 458.101C1047.22 460.413 1054.18 460.33 1062.44 457.935C1070.71 455.541 1076.61 451.907 1080.04 446.952C1083.56 441.997 1084.38 436.464 1082.66 430.353C1080.94 424.242 1077.26 419.947 1071.78 417.553C1066.21 415.158 1059.33 415.24 1051.06 417.635C1042.8 420.03 1036.9 423.746 1033.46 428.701C1030.03 433.656 1029.13 439.189 1030.93 445.383C1032.56 451.577 1036.17 455.788 1041.73 458.101Z" fill="black"/>
<path d="M1111.18 538.209C1110.28 541.182 1108.72 543.742 1106.6 545.971C1104.88 547.788 1102.83 549.357 1100.62 550.513C1098.41 551.752 1095.79 552.495 1092.76 552.826C1089.16 553.239 1085.47 552.661 1081.79 551.174C1078.11 549.688 1075.32 546.962 1073.44 542.833C1072.38 546.55 1070.66 549.275 1068.2 551.009C1065.75 552.743 1061.9 553.899 1056.5 554.477L1051.42 555.056C1047.98 555.386 1045.61 555.799 1044.38 556.212C1042.5 556.872 1041.11 557.946 1040.37 559.68L1038.49 559.845L1036.6 542.09C1038.24 541.429 1039.55 540.934 1040.61 540.604C1042.66 539.943 1044.87 539.53 1047.08 539.2L1054.12 538.374C1058.95 537.796 1062.14 536.557 1063.54 534.823C1065.01 533.006 1065.5 529.868 1065.01 525.408L1063.37 509.718L1033.49 512.938L1031.86 497.248L1107.99 489.072L1111.83 525.821C1112.33 531.107 1112.08 535.236 1111.18 538.209ZM1096.44 506.249L1075.98 508.479L1077.78 525.739C1078.11 529.207 1078.84 531.685 1079.83 533.336C1081.63 536.227 1084.57 537.465 1088.91 536.97C1093.5 536.474 1096.44 534.658 1097.75 531.602C1098.49 529.868 1098.65 527.308 1098.33 524.005L1096.44 506.249Z" fill="black"/>
<path d="M1037.55 590.171L1037.8 574.15L1114.42 575.141L1114.18 591.162L1037.55 590.171Z" fill="black"/>
<path d="M1107.03 671.659L1093.53 670.09L1096.14 647.132L1033.52 639.865L1035.32 623.678L1097.95 630.946L1100.57 607.905L1114.07 609.474L1107.03 671.659Z" fill="black"/>
<path d="M1091.31 735.746L1086.56 753.419L1047.02 715.926L1019.27 708.411L1023.45 692.803L1051.2 700.318L1104.33 687.022L1099.42 705.438L1063.07 712.21L1091.31 735.746Z" fill="black"/>
<path d="M966.808 853.448C964.434 861.046 964.762 865.505 965.58 873.351L965.908 876.654L968.691 874.92C969.919 874.177 978.433 866.992 980.397 858.238C981.461 853.614 982.198 848.411 980.807 841.391L980.152 838.253L977.614 840.235C973.439 843.291 968.609 847.585 966.808 853.448Z" fill="#5FAF6D"/>
<path d="M958.499 872.383C958.089 870.731 957.598 869.162 956.943 867.758L955.961 865.611L954.487 867.345C950.804 871.639 947.365 876.512 946.792 882.953C946.219 889.56 946.465 894.267 947.857 899.8C948.266 901.369 948.757 903.021 949.33 904.92L949.74 906.076L950.967 905.911C951.54 905.829 964.393 903.764 971.515 897.818C971.842 897.488 972.252 897.24 972.579 896.91C976.017 894.019 979.537 891.046 982.566 884.688L983.467 882.706L981.256 882.623C972.17 882.21 963.738 886.422 958.253 891.212C959.399 885.926 960.136 878.989 958.499 872.383Z" fill="#5FAF6D"/>
<path d="M935.031 909.496C935.031 909.084 935.031 908.588 935.113 908.175C935.276 904.872 935.358 901.486 934.376 897.192C933.967 895.623 933.475 894.054 932.82 892.402L931.92 890.255L930.365 891.989C926.763 896.035 923.079 900.991 922.342 907.432C921.605 914.369 921.851 919.241 923.325 925.352C923.652 926.591 923.979 927.995 924.471 929.482L924.716 930.142L925.371 930.39C938.141 935.51 946.491 936.914 959.671 936.418C969.658 936.088 977.599 930.885 984.639 925.435L986.44 924.031L984.393 922.957C974.406 917.837 967.121 917.672 959.999 917.507C959.262 917.507 958.607 917.507 957.87 917.424C947.719 917.094 936.832 921.471 930.365 924.692C932.411 920.81 934.785 915.112 935.031 909.496Z" fill="#5FAF6D"/>
<path d="M903.393 952.053C906.012 948.007 909.123 942.226 909.86 936.363C909.942 935.867 909.942 935.454 910.023 934.959C910.596 930.83 911.088 926.535 909.696 920.589C909.532 919.846 909.287 919.02 909.041 918.195L908.304 915.965L906.585 917.534C902.246 921.663 898.072 926.37 896.844 932.977C895.125 941.483 895.206 947.181 897.089 956.265L897.253 956.926L897.908 957.256C910.842 963.78 919.438 966.092 933.272 966.753C943.832 967.331 952.919 962.376 960.368 957.504L962.333 956.265L960.368 955.026C950.463 948.833 942.768 947.924 935.401 947.016C934.664 946.933 933.927 946.851 933.108 946.768C922.303 945.529 910.351 949.163 903.393 952.053Z" fill="#5FAF6D"/>
<path d="M873.223 977.669C876.334 973.705 880.263 967.842 881.573 961.648C881.655 961.153 881.819 960.657 881.901 960.244C882.965 955.372 884.029 950.334 882.31 942.654L881.819 940.342L880.018 941.746C875.106 945.627 870.358 950.169 868.393 956.941C865.856 965.695 865.365 971.641 866.511 981.303L866.592 982.046L867.166 982.459C880.1 990.47 888.941 993.69 903.348 995.672C914.318 997.241 924.305 992.947 932.573 988.488L934.62 987.414L932.737 986.01C922.913 978.578 914.891 976.926 907.196 975.357C906.459 975.192 905.641 975.027 904.904 974.862C893.852 972.467 880.836 975.357 873.223 977.669Z" fill="#5FAF6D"/>
<path d="M873.539 1001.16C861.915 997.528 847.835 999.428 839.73 1001.24C843.414 997.446 848.162 991.5 850.127 985.058C850.29 984.563 850.454 984.067 850.618 983.572C852.173 978.617 853.729 973.414 852.664 965.239L852.337 962.926L850.372 964.248C844.888 967.881 839.485 972.176 836.865 979.112C833.427 988.031 832.363 994.225 832.69 1004.47V1005.21L833.263 1005.62C846.116 1015.2 855.039 1019.41 869.937 1022.8C881.234 1025.44 891.631 1022.06 901.208 1018.01L903.337 1017.1L901.618 1015.53C891.958 1006.78 883.772 1004.38 875.831 1001.99C875.095 1001.66 874.276 1001.41 873.539 1001.16Z" fill="#5FAF6D"/>
<path d="M838.632 1025.54C826.68 1020.67 811.618 1021.33 803.022 1022.49C807.279 1018.85 812.846 1012.99 815.547 1006.3C815.793 1005.81 815.956 1005.23 816.202 1004.73C818.248 999.613 820.459 994.41 819.967 985.739L819.886 983.426L817.839 984.5C811.781 987.803 805.724 991.767 802.367 998.787C797.947 1007.87 796.309 1014.23 795.736 1024.97V1025.71L796.228 1026.2C808.834 1037.52 817.839 1042.64 833.147 1047.59C844.772 1051.39 855.987 1048.83 866.301 1045.53L868.511 1044.79L866.956 1043.05C857.624 1033.06 849.356 1029.67 841.252 1026.45C840.269 1026.2 839.451 1025.87 838.632 1025.54Z" fill="#5FAF6D"/>
<path d="M802.707 1048.6C801.888 1048.19 800.988 1047.77 800.169 1047.28C787.972 1041 771.927 1040.42 762.84 1040.84C767.588 1037.45 774.137 1031.75 777.657 1024.9C777.903 1024.4 778.148 1023.82 778.476 1023.33C781.095 1018.21 783.878 1012.92 784.206 1003.84L784.288 1001.53L782.159 1002.44C775.856 1005.16 768.816 1008.88 764.641 1015.98C759.156 1025.06 756.946 1031.51 755.309 1042.74L755.227 1043.48L755.718 1043.97C767.834 1056.94 776.756 1063.3 792.474 1069.91C804.262 1074.94 816.214 1073.29 827.429 1070.73L829.721 1070.24L828.329 1068.42C819.243 1057.02 810.811 1052.73 802.707 1048.6Z" fill="#5FAF6D"/>
<path d="M757.112 1065.11C745.078 1056.85 728.215 1054.21 718.637 1053.46C724.04 1050.57 731.817 1045.45 736.319 1038.6C736.647 1038.1 736.974 1037.61 737.301 1037.11C740.74 1032.08 744.26 1026.87 745.733 1017.46L746.142 1015.15L743.932 1015.81C736.974 1017.79 729.197 1020.84 723.958 1027.62C717.082 1036.37 713.889 1042.89 710.778 1054.37L710.615 1055.03L711.024 1055.61C722.075 1070.72 730.589 1078.49 746.061 1087.41C757.767 1094.18 770.455 1094.01 782.407 1092.77L784.699 1092.53L783.471 1090.54C775.695 1077.58 767.427 1072.05 759.404 1066.68C758.749 1066.18 757.931 1065.69 757.112 1065.11Z" fill="#5FAF6D"/>
<path d="M733.903 1108.8C727.927 1094.02 720.232 1086.91 712.783 1079.98C712.046 1079.32 711.31 1078.57 710.573 1077.91C698.785 1066.85 681.43 1061.56 672.262 1059.41C678.319 1057.35 687.406 1053.3 693.382 1046.86C693.791 1046.36 694.282 1045.95 694.692 1045.46C699.03 1040.83 703.533 1036.04 706.643 1026.46L707.38 1024.23L705.088 1024.56C697.229 1025.55 688.961 1027.37 682.412 1033.48C673.899 1041.41 669.478 1047.69 664.403 1059.17L664.075 1059.83L664.403 1060.49C673.408 1077.99 681.021 1087.41 695.674 1099.3C706.725 1108.3 719.905 1110.2 732.512 1110.94L734.804 1111.11L733.903 1108.8Z" fill="#5FAF6D"/>
<path d="M664.32 1086.58C663.583 1085.75 662.928 1085.01 662.191 1084.18C651.304 1071.96 633.458 1064.45 623.471 1061.23C630.02 1059.57 640.007 1056.19 646.883 1049.91C647.374 1049.5 647.865 1049 648.357 1048.59C653.35 1044.13 658.508 1039.51 662.601 1029.84L663.501 1027.7L661.209 1027.78C652.859 1028.11 644.1 1029.18 636.65 1035.05C626.991 1042.56 621.833 1048.67 615.448 1060.24L615.121 1060.9L615.366 1061.56C623.225 1080.8 630.347 1091.37 644.591 1105.08C655.315 1115.57 668.986 1118.79 682.166 1120.69L684.458 1121.02L683.803 1118.79C678.891 1102.68 671.524 1094.51 664.32 1086.58Z" fill="#5FAF6D"/>
<path d="M608.817 1053.93C609.144 1053.52 609.39 1053.02 609.636 1052.52C612.419 1047.9 615.366 1043.11 616.266 1034.69L616.512 1032.79L614.711 1033.36C608.326 1035.59 601.859 1038.49 597.438 1044.76C591.708 1052.85 589.17 1058.8 586.878 1069.21L586.796 1069.78L587.124 1070.2C587.206 1070.28 601.695 1064.5 608.817 1053.93Z" fill="#5FAF6D"/>
<path d="M536.461 1053.93C536.133 1053.52 535.888 1053.02 535.642 1052.53C532.859 1047.9 529.912 1043.11 529.011 1034.69L528.766 1032.79L530.567 1033.37C536.952 1035.6 543.419 1038.49 547.839 1044.76C553.57 1052.86 556.107 1058.8 558.4 1069.21L558.482 1069.79L558.154 1070.2C558.072 1070.28 543.583 1064.5 536.461 1053.93Z" fill="#5FAF6D"/>
<path d="M567.272 1049.31C567.272 1048.73 567.354 1048.24 567.436 1047.66C567.927 1042.29 568.419 1036.68 572.594 1029.33L573.494 1027.67L574.558 1029.24C578.406 1034.86 581.844 1041.14 581.68 1048.73C581.516 1058.64 580.043 1065 575.704 1074.66L575.459 1075.16L574.886 1075.32C574.967 1075.41 566.781 1062.03 567.272 1049.31Z" fill="#5FAF6D"/>
<path d="M180.741 853.448C183.115 861.046 182.788 865.505 181.969 873.351L181.642 876.654L178.858 874.92C177.63 874.177 169.117 866.992 167.152 858.238C166.088 853.614 165.351 848.411 166.743 841.391L167.398 838.253L169.935 840.235C174.028 843.291 178.94 847.585 180.741 853.448Z" fill="#5FAF6D"/>
<path d="M188.931 872.383C189.34 870.731 189.831 869.162 190.486 867.758L191.468 865.611L192.942 867.345C196.626 871.639 200.064 876.512 200.637 882.953C201.21 889.56 200.964 894.267 199.573 899.8C199.163 901.369 198.672 903.021 198.099 904.92L197.69 906.076L196.462 905.911C195.889 905.829 183.037 903.764 175.915 897.818C175.587 897.488 175.178 897.24 174.85 896.91C171.412 894.019 167.892 891.046 164.863 884.688L163.963 882.706L166.173 882.623C175.26 882.21 183.691 886.422 189.176 891.212C188.03 885.926 187.293 878.989 188.931 872.383Z" fill="#5FAF6D"/>
<path d="M212.52 909.501C212.52 909.088 212.52 908.593 212.439 908.18C212.275 904.876 212.193 901.491 213.175 897.196C213.585 895.627 214.076 894.058 214.731 892.406L215.631 890.259L217.187 891.994C220.788 896.04 224.472 900.995 225.209 907.437C225.946 914.373 225.7 919.246 224.227 925.357C223.899 926.596 223.572 928 223.081 929.486L222.835 930.147L222.18 930.394C209.41 935.515 201.06 936.918 187.88 936.423C177.893 936.093 169.952 930.89 162.912 925.44L161.111 924.036L163.158 922.962C173.145 917.842 180.431 917.677 187.553 917.512C188.289 917.512 188.944 917.512 189.681 917.429C199.832 917.099 210.72 921.476 217.187 924.696C215.058 920.815 212.684 915.117 212.52 909.501Z" fill="#5FAF6D"/>
<path d="M244.042 952.053C241.423 948.007 238.312 942.226 237.575 936.363C237.493 935.867 237.493 935.454 237.411 934.959C236.838 930.83 236.347 926.535 237.739 920.589C237.903 919.846 238.148 919.02 238.394 918.195L239.131 915.965L240.85 917.534C245.188 921.663 249.363 926.37 250.591 932.977C252.31 941.483 252.228 947.181 250.346 956.265L250.182 956.926L249.527 957.256C236.593 963.78 227.997 966.092 214.163 966.753C203.603 967.331 194.516 962.376 187.067 957.504L185.102 956.265L187.067 955.026C196.972 948.833 204.667 947.924 212.034 947.016C212.771 946.933 213.508 946.851 214.326 946.768C225.132 945.529 237.084 949.163 244.042 952.053Z" fill="#5FAF6D"/>
<path d="M274.241 977.669C271.13 973.705 267.201 967.842 265.891 961.648C265.809 961.153 265.645 960.657 265.563 960.244C264.499 955.372 263.435 950.334 265.154 942.654L265.645 940.342L267.446 941.746C272.358 945.627 277.106 950.169 279.071 956.941C281.608 965.695 282.099 971.641 280.953 981.303L280.872 982.046L280.298 982.459C267.364 990.47 258.523 993.69 244.116 995.672C233.146 997.241 223.159 992.947 214.891 988.488L212.844 987.414L214.727 986.01C224.551 978.578 232.573 976.926 240.268 975.357C241.005 975.192 241.823 975.027 242.56 974.862C253.612 972.467 266.709 975.357 274.241 977.669Z" fill="#5FAF6D"/>
<path d="M274.013 1001.16C285.637 997.528 299.718 999.428 307.822 1001.24C304.138 997.446 299.39 991.5 297.425 985.058C297.262 984.563 297.098 984.067 296.934 983.572C295.379 978.617 293.823 973.414 294.888 965.239L295.215 962.926L297.18 964.248C302.665 967.881 308.067 972.176 310.687 979.112C314.125 988.031 315.189 994.225 314.862 1004.47V1005.21L314.289 1005.62C301.437 1015.2 292.514 1019.41 277.615 1022.8C266.318 1025.44 255.921 1022.06 246.344 1018.01L244.215 1017.1L245.934 1015.53C255.594 1006.78 263.78 1004.38 271.721 1001.99C272.458 1001.66 273.194 1001.41 274.013 1001.16Z" fill="#5FAF6D"/>
<path d="M308.978 1025.54C320.93 1020.67 335.993 1021.33 344.588 1022.49C340.331 1018.85 334.765 1012.99 332.063 1006.3C331.818 1005.81 331.654 1005.23 331.408 1004.73C329.362 999.613 327.152 994.41 327.643 985.739L327.725 983.426L329.771 984.5C335.829 987.803 341.887 991.767 345.243 998.787C349.664 1007.87 351.301 1014.23 351.874 1024.97V1025.71L351.383 1026.2C338.776 1037.52 329.771 1042.64 314.463 1047.59C302.839 1051.39 291.624 1048.83 281.309 1045.53L279.099 1044.79L280.654 1043.05C289.986 1033.06 298.254 1029.67 306.359 1026.45C307.341 1026.2 308.16 1025.87 308.978 1025.54Z" fill="#5FAF6D"/>
<path d="M344.781 1048.6C345.6 1048.19 346.5 1047.77 347.319 1047.28C359.516 1041 375.561 1040.42 384.648 1040.84C379.9 1037.45 373.351 1031.75 369.831 1024.9C369.585 1024.4 369.34 1023.82 369.012 1023.33C366.393 1018.21 363.609 1012.92 363.282 1003.84L363.2 1001.53L365.328 1002.44C371.632 1005.16 378.672 1008.88 382.847 1015.98C388.332 1025.06 390.542 1031.51 392.179 1042.74L392.261 1043.48L391.77 1043.97C379.654 1056.94 370.731 1063.3 355.014 1069.91C343.226 1074.94 331.274 1073.29 320.059 1070.73L317.767 1070.24L319.159 1068.42C328.163 1057.02 336.595 1052.73 344.781 1048.6Z" fill="#5FAF6D"/>
<path d="M390.293 1065.11C402.327 1056.85 419.19 1054.21 428.768 1053.46C423.365 1050.57 415.588 1045.45 411.086 1038.6C410.759 1038.1 410.431 1037.61 410.104 1037.11C406.666 1032.08 403.145 1026.87 401.672 1017.46L401.263 1015.15L403.473 1015.81C410.431 1017.79 418.208 1020.84 423.447 1027.62C430.324 1036.37 433.516 1042.89 436.627 1054.37L436.791 1055.03L436.381 1055.61C425.33 1070.72 416.816 1078.49 401.345 1087.41C389.638 1094.18 376.95 1094.01 364.998 1092.77L362.706 1092.53L363.934 1090.54C371.711 1077.58 379.979 1072.05 388.001 1066.68C388.656 1066.18 389.475 1065.69 390.293 1065.11Z" fill="#5FAF6D"/>
<path d="M413.573 1108.8C419.549 1094.02 427.244 1086.91 434.693 1079.98C435.43 1079.32 436.167 1078.57 436.904 1077.91C448.692 1066.85 466.046 1061.56 475.215 1059.41C469.157 1057.35 460.07 1053.3 454.094 1046.86C453.685 1046.36 453.194 1045.95 452.785 1045.46C448.446 1040.83 443.944 1036.04 440.833 1026.46L440.096 1024.23L442.388 1024.56C450.247 1025.55 458.515 1027.37 465.064 1033.48C473.578 1041.41 477.998 1047.69 483.074 1059.17L483.401 1059.83L483.074 1060.49C474.069 1077.99 466.456 1087.41 451.802 1099.3C440.751 1108.3 427.571 1110.2 414.965 1110.94L412.672 1111.11L413.573 1108.8Z" fill="#5FAF6D"/>
<path d="M483.128 1086.58C483.865 1085.75 484.52 1085.01 485.256 1084.18C496.144 1071.96 513.99 1064.45 523.977 1061.23C517.428 1059.57 507.441 1056.19 500.564 1049.91C500.073 1049.5 499.582 1049 499.091 1048.59C494.097 1044.13 488.94 1039.51 484.847 1029.84L483.947 1027.7L486.239 1027.78C494.589 1028.11 503.348 1029.18 510.797 1035.05C520.457 1042.56 525.614 1048.67 531.999 1060.24L532.327 1060.9L532.081 1061.56C524.223 1080.8 517.101 1091.37 502.857 1105.08C492.133 1115.57 478.462 1118.79 465.282 1120.69L462.99 1121.02L463.645 1118.79C468.557 1102.68 476.006 1094.51 483.128 1086.58Z" fill="#5FAF6D"/>
</g>
</svg>
